<svg xmlns="http://www.w3.org/2000/svg" xmlns:xlink="http://www.w3.org/1999/xlink" width="21" height="14" class="icon"><defs><path id="a" d="M748.554 620.871a.562.562 0 0 1-.015.167l-1.234 4.934a.561.561 0 0 1-.541.425l-7.401.037h-7.406a.56.56 0 0 1-.543-.425l-1.234-4.954a.545.545 0 0 1-.015-.17 1.179 1.179 0 0 1-.825-1.124 1.18 1.18 0 0 1 2.356 0c0 .366-.167.693-.43.91l1.544 1.555c.39.394.933.62 1.486.62.656 0 1.28-.312 1.674-.833l2.538-3.363a1.178 1.178 0 1 1 2.01-.833c0 .315-.125.602-.327.812l.003.003 2.519 3.372a2.104 2.104 0 0 0 1.678.841 2.08 2.08 0 0 0 1.48-.613l1.554-1.554a1.178 1.178 0 0 1 .739-2.094 1.177 1.177 0 0 1 .39 2.287zm-1.37 7.32a.56.56 0 0 0-.56-.56H732.12a.56.56 0 0 0-.561.56v1.346c0 .31.25.56.56.56h14.505a.56.56 0 0 0 .56-.56z"/></defs><use fill="#ffda2d" opacity=".83" transform="translate(-729 -616)" xlink:href="#a"/></svg>