<svg xmlns="http://www.w3.org/2000/svg" xmlns:xlink="http://www.w3.org/1999/xlink" width="16" height="13" class="icon"><defs><path id="a" d="M312.504 110.974c-.876.597-5.274 3.602-5.747 4.075a1.76 1.76 0 0 0 0 2.486c.343.343.793.514 1.243.514.45 0 .9-.17 1.243-.514.473-.473 3.478-4.87 4.076-5.747a.588.588 0 0 0-.815-.814zm-4.918 5.732a.587.587 0 0 1 0-.828c.183-.182 1.432-1.072 2.968-2.14-1.068 1.536-1.958 2.784-2.14 2.968a.588.588 0 0 1-.828 0zm7.914-.414a7.439 7.439 0 0 0-.661-3.083.586.586 0 1 0-1.068.482c.37.82.557 1.694.557 2.601a6.277 6.277 0 0 1-.81 3.082l-.754-.359a.586.586 0 0 0-.504 1.058l1.23.586a.587.587 0 0 0 .74-.204 7.47 7.47 0 0 0 1.27-4.163zm-11.514 2.995a.586.586 0 0 0-.784-.27l-.723.353a6.303 6.303 0 0 1-.395-5.325l.829.397a.585.585 0 0 0 .781-.274.585.585 0 0 0-.274-.782l-.82-.392a6.34 6.34 0 0 1 4.814-3.004v.882a.586.586 0 0 0 1.172 0v-.882a6.278 6.278 0 0 1 2.015.53.585.585 0 1 0 .482-1.067 7.454 7.454 0 0 0-3.083-.66c-2.003 0-3.887.78-5.303 2.195a7.45 7.45 0 0 0-2.197 5.304c0 1.48.44 2.92 1.27 4.163a.585.585 0 0 0 .745.201l1.2-.586a.585.585 0 0 0 .27-.783z"/></defs><use fill="#989898" transform="translate(-300 -108)" xlink:href="#a"/></svg>