<svg xmlns="http://www.w3.org/2000/svg" xmlns:xlink="http://www.w3.org/1999/xlink" width="46" height="40"><defs><path id="a" d="M331.102 615.578c1.132 1.962-.286 4.422-2.553 4.422H289.45c-2.266 0-3.685-2.46-2.552-4.422l19.55-33.866c1.133-1.963 3.97-1.963 5.104 0zm-22.075-23.438a2.241 2.241 0 0 0-2.238 2.294l.359 12.862a1.873 1.873 0 0 0 1.87 1.814 1.867 1.867 0 0 0 1.871-1.814l.368-12.862a2.234 2.234 0 0 0-2.23-2.294zM309 615.402a2.323 2.323 0 0 0 2.321-2.32 2.324 2.324 0 0 0-2.321-2.323 2.324 2.324 0 0 0-2.322 2.322 2.324 2.324 0 0 0 2.322 2.321z"/></defs><use fill="#fbac2e" opacity=".76" transform="translate(-286 -580)" xlink:href="#a"/></svg>