<svg xmlns="http://www.w3.org/2000/svg" xmlns:xlink="http://www.w3.org/1999/xlink" width="18" height="15" viewBox="0 0 18 15"><defs><path id="wjt8a" d="M35.122 467.23l-.92-.447L36.015 463H24v-1h13.622z"/><path id="wjt8b" d="M33.233 470.517a1.423 1.423 0 1 1 0 2.846 1.423 1.423 0 0 1 0-2.846z"/><path id="wjt8c" d="M33.233 471.235a.705.705 0 1 1 0 1.41.705.705 0 0 1 0-1.41z"/><path id="wjt8d" d="M28.08 470.517a1.423 1.423 0 1 1 0 2.846 1.423 1.423 0 0 1 0-2.846z"/><path id="wjt8e" d="M28.08 471.235a.705.705 0 1 1 .001 1.41.705.705 0 0 1 0-1.41z"/><path id="wjt8f" d="M20.573 459a.492.492 0 0 0-.493.493.487.487 0 0 0 .493.507H22v-1z"/><path id="wjt8g" d="M34.915 467h-8.247l-3.613-7.69a.526.526 0 0 0-.478-.31H22v1h.239l3.614 7.69c.084.184.267.31.478.31h8.519s.594.251.594.583c0 .332-.594.417-.594.417h-8.86c-.284 0-.5.229-.5.5 0 .284.229.5.5.5h8.925c.826 0 1.5-.674 1.5-1.5s-.674-1.5-1.5-1.5z"/></defs><g><g transform="translate(-20 -459)"><use fill="#fff" xlink:href="#wjt8a"/></g><g transform="translate(-20 -459)"><use fill="#fff" xlink:href="#wjt8b"/></g><g transform="translate(-20 -459)"><use fill="#fff" xlink:href="#wjt8c"/></g><g transform="translate(-20 -459)"><use fill="#fff" xlink:href="#wjt8d"/></g><g transform="translate(-20 -459)"><use fill="#fff" xlink:href="#wjt8e"/></g><g transform="translate(-20 -459)"><use fill="#fff" xlink:href="#wjt8f"/></g><g transform="translate(-20 -459)"><use fill="#fff" xlink:href="#wjt8g"/></g></g></svg>