<svg xmlns="http://www.w3.org/2000/svg" xmlns:xlink="http://www.w3.org/1999/xlink" width="25" height="24" viewBox="0 0 25 24"><defs><path id="zkxba" d="M73.48 572.687c-.101-.107-.204-.214-.41-.214H53.589l-.513-2.783c0-.215-.307-.428-.512-.428h-3.077c-.307 0-.512.213-.512.535 0 .321.205.535.512.535h2.666l2.46 13.06c.309 1.713 1.847 2.998 3.488 2.998h11.792c.308 0 .513-.215.513-.536 0-.32-.205-.535-.513-.535h-11.69c-.82 0-1.64-.428-2.05-1.178l14.97-2.14c.206 0 .41-.215.41-.429l2.052-8.564s0-.214-.103-.32zm-2.87 8.35l-14.971 2.034-1.846-9.635h18.56z"/><path id="zkxbb" d="M57.69 587.46c-1.436 0-2.563 1.178-2.563 2.677 0 1.498 1.126 2.676 2.562 2.676 1.437 0 2.564-1.178 2.564-2.676 0-1.5-1.127-2.677-2.563-2.677zm0 4.282c-.82 0-1.538-.75-1.538-1.605 0-.857.718-1.606 1.538-1.606.82 0 1.538.749 1.538 1.606 0 .856-.719 1.605-1.539 1.605z"/><path id="zkxbc" d="M67.944 587.46c-1.436 0-2.563 1.178-2.563 2.677 0 1.498 1.127 2.676 2.563 2.676 1.436 0 2.563-1.178 2.563-2.676 0-1.5-1.127-2.677-2.563-2.677zm0 4.282c-.82 0-1.538-.75-1.538-1.605 0-.857.718-1.606 1.538-1.606.82 0 1.538.749 1.538 1.606 0 .856-.718 1.605-1.538 1.605z"/><path id="zkxbd" d="M65.61 574.875l-.893.893-3.327 3.327-1.686-1.686-.23-.23-.452.453-.452.452 2.82 2.82 5.125-5.124z"/></defs><g><g transform="translate(-49 -569)"><use fill="#606363" xlink:href="#zkxba"/></g><g transform="translate(-49 -569)"><use fill="#606363" xlink:href="#zkxbb"/></g><g transform="translate(-49 -569)"><use fill="#606363" xlink:href="#zkxbc"/></g><g transform="translate(-49 -569)"><use fill="#b1e07c" xlink:href="#zkxbd"/></g></g></svg>