<svg xmlns="http://www.w3.org/2000/svg" xmlns:xlink="http://www.w3.org/1999/xlink" width="17" height="18"><defs><path id="a" d="M625.193 220.345a.908.908 0 0 1 .518.816v8.22c0 .348-.2.664-.513.815l-7.34 3.513a.901.901 0 0 1-.781 0l-7.28-3.515a.902.902 0 0 1-.51-.813v-8.22c0-.343.2-.663.515-.814l7.28-3.462a.903.903 0 0 1 .772 0zm-8.626 5.031l-5.474-2.75v6.19l5.474 2.643zm6.173-4.192l-5.27-2.485-5.226 2.485 5.227 2.627zm1.166 1.436l-5.535 2.758v6.085l5.535-2.65z"/></defs><use fill="#e96a2a" opacity=".78" transform="translate(-609 -216)" xlink:href="#a"/></svg>