<svg xmlns="http://www.w3.org/2000/svg" viewBox="0 0 16 16.07"><g fill="#fff"><path d="M4.8 16.07a.69.69 0 0 1-.24-.07.67.67 0 0 1-.39-.63v-2A4.92 4.92 0 0 1 0 8.52V4.9A4.91 4.91 0 0 1 4.9 0H11a5 5 0 0 1 5 4.92v3.63a5 5 0 0 1-5 4.95h-.5a6.71 6.71 0 0 0-4.74 1.89l-.5.48a.66.66 0 0 1-.46.2zM4.9 1A3.91 3.91 0 0 0 1 4.9v3.62a3.86 3.86 0 0 0 3.67 3.93h.5v2.12a7.71 7.71 0 0 1 5.33-2.07h.5a4 4 0 0 0 4-3.95V4.92A4 4 0 0 0 11 1z"/><circle cx="3.91" cy="7.3" r=".96"/><circle cx="7.74" cy="7.3" r=".96"/><circle cx="11.57" cy="7.3" r=".96"/></g></svg>