<svg xmlns="http://www.w3.org/2000/svg" viewBox="0 0 31 20"><g fill="#525454" data-name="Layer 2"><path d="M25.11 15a.52.52 0 0 1-.34-.12L19 10a.42.42 0 0 1 0-.64.52.52 0 0 1 .71 0l5.75 4.9a.43.43 0 0 1 0 .65.52.52 0 0 1-.35.09zM5.9 15a.54.54 0 0 1-.36-.14.43.43 0 0 1 0-.65l5.75-4.9a.53.53 0 0 1 .71 0 .42.42 0 0 1 0 .69l-5.76 4.89a.5.5 0 0 1-.34.11z"/><path d="M28.5 20h-26A2.4 2.4 0 0 1 0 17.73V2.27A2.4 2.4 0 0 1 2.5 0h26A2.4 2.4 0 0 1 31 2.27v15.46A2.4 2.4 0 0 1 28.5 20zM1 2.27v15.46a1.43 1.43 0 0 0 1.5 1.36h26a1.43 1.43 0 0 0 1.5-1.36V2.27A1.43 1.43 0 0 0 28.5.91h-26A1.43 1.43 0 0 0 1 2.27z"/><path d="M15.51 11.83a3 3 0 0 1-1.84-.6L.83 1.05a.42.42 0 0 1 0-.64.55.55 0 0 1 .71 0l12.79 10.14a2 2 0 0 0 2.35 0L29.51.38a.53.53 0 0 1 .7 0 .44.44 0 0 1 0 .65l-12.87 10.2a3 3 0 0 1-1.83.6z"/></g></svg>