<svg xmlns="http://www.w3.org/2000/svg" xmlns:xlink="http://www.w3.org/1999/xlink" width="25" height="13" viewBox="0 0 25 13"><defs><path id="ssdta" d="M26.65 587.878l-3.892 3.89a.375.375 0 0 0 0 .534.376.376 0 0 0 .534 0l3.891-3.891a.377.377 0 1 0-.534-.533z"/><path id="ssdtb" d="M30.19 587.878a.377.377 0 1 0-.534.533l3.274 5.273a.376.376 0 0 0 .533 0 .377.377 0 0 0 0-.534z"/><path id="ssdtc" d="M41.872 586.751a.377.377 0 0 0-.533 0l-5.772 6.772a.377.377 0 1 0 .533.534l5.772-6.773a.377.377 0 0 0 0-.533z"/><path id="ssdtd" d="M21.898 591.653a1.886 1.886 0 1 1 0 3.773 1.886 1.886 0 0 1 0-3.773z"/><path id="ssdte" d="M28.42 585.132a1.886 1.886 0 1 1 0 3.772 1.886 1.886 0 0 1 0-3.772z"/><path id="ssdtf" d="M43.114 584a1.886 1.886 0 1 1 0 3.772 1.886 1.886 0 0 1 0-3.772z"/><path id="ssdtg" d="M34.324 593.035a1.886 1.886 0 1 1 0 3.773 1.886 1.886 0 0 1 0-3.773z"/></defs><g><g transform="translate(-20 -584)"><use fill="#fff" xlink:href="#ssdta"/></g><g transform="translate(-20 -584)"><use fill="#fff" xlink:href="#ssdtb"/></g><g transform="translate(-20 -584)"><use fill="#fff" xlink:href="#ssdtc"/></g><g transform="translate(-20 -584)"><use fill="#fff" xlink:href="#ssdtd"/></g><g transform="translate(-20 -584)"><use fill="#fff" xlink:href="#ssdte"/></g><g transform="translate(-20 -584)"><use fill="#fff" xlink:href="#ssdtf"/></g><g transform="translate(-20 -584)"><use fill="#fff" xlink:href="#ssdtg"/></g></g></svg>