<svg xmlns="http://www.w3.org/2000/svg" viewBox="0 0 15 18"><g fill="#fff" data-name="Layer 2"><path d="M14.49.29a.31.31 0 0 0-.3-.29H.91A.31.31 0 0 0 .6.29L0 17.68a.36.36 0 0 0 .08.23.31.31 0 0 0 .22.09h14.49a.31.31 0 0 0 .22-.09.27.27 0 0 0 .08-.23zM.62 17.4L1.19.6H13.9l.57 16.8"/><path d="M9.81 1.21a.91.91 0 1 0 .91.9.9.9 0 0 0-.91-.9zm0 1.2a.29.29 0 0 1-.3-.3.3.3 0 0 1 .6 0 .29.29 0 0 1-.3.3zM5.28 1.21a.91.91 0 0 0 0 1.79.91.91 0 1 0 0-1.81zm0 1.2a.3.3 0 0 1-.3-.3.31.31 0 0 1 .3-.3.3.3 0 0 1 .3.3.29.29 0 0 1-.3.3z"/><path d="M9.81 2.11a.3.3 0 0 0-.3.3.22.22 0 0 0 0 .12v1.54a2 2 0 1 1-3.93 0V2.41a.3.3 0 0 0-.3-.3.31.31 0 0 0-.3.3v1.66a2.57 2.57 0 1 0 5.13 0V2.41a.3.3 0 0 0-.3-.3z"/></g></svg>