<svg xmlns="http://www.w3.org/2000/svg" xmlns:xlink="http://www.w3.org/1999/xlink" width="24" height="25">
  <defs>
    <path id="a" d="M980.574 511.582l-.033-.782-.779-.08c-2.989-.307-5.559-1.423-7.189-2.305-1.785-.966-2.866-1.87-2.877-1.88l-.584-.493-.585.492c-.01.01-1.093.915-2.877 1.881-1.63.882-4.2 1.998-7.189 2.305l-.779.08-.033.782c-.006.14-.13 3.473 1.153 7.51.758 2.382 1.852 4.517 3.252 6.345 1.76 2.295 4.002 4.104 6.667 5.376l.39.187.391-.187c2.665-1.272 4.908-3.08 6.667-5.376 1.4-1.828 2.494-3.963 3.252-6.345 1.284-4.037 1.16-7.37 1.153-7.51zm-11.463 17.406a16.365 16.365 0 0 1-5.599-4.623c-1.27-1.653-2.27-3.592-2.967-5.764a23.331 23.331 0 0 1-1.082-6.184 20.117 20.117 0 0 0 3.614-.893 23.155 23.155 0 0 0 3.48-1.542 22.52 22.52 0 0 0 2.554-1.612c.531.39 1.406.987 2.555 1.612a23.189 23.189 0 0 0 3.48 1.542c1.203.416 2.416.715 3.615.894a23.223 23.223 0 0 1-1.065 6.126c-.694 2.182-1.69 4.132-2.964 5.793a16.334 16.334 0 0 1-5.62 4.651z"/>
    <path id="b" d="M974.043 514.404l-1.262 1.263-4.705 4.705-2.385-2.385-.324-.324-.639.64-.64.64 3.988 3.988 7.247-7.247z"/>
  </defs>
  <use fill="#aeaeae" transform="translate(-957 -506)" xlink:href="#a"/>
  <use fill="#aeaeae" transform="translate(-957 -506)" xlink:href="#b"/>
</svg>