<svg xmlns="http://www.w3.org/2000/svg" viewBox="0 0 34.24 29.3"><title>support</title><g id="Layer_2" data-name="Layer 2"><g id="мобил"><g id="HELP"><path d="M32.51,9.19A.82.82,0,0,0,32,10.75a.87.87,0,0,1,.61.84v3.73a.87.87,0,0,1-.85.9H30.65a13.72,13.72,0,1,0-27.2-2.5v2.5H2.53a.91.91,0,0,1-.9-.9V11.59a.89.89,0,0,1,.63-.84.82.82,0,0,0,.53-1,.83.83,0,0,0-1-.53A2.52,2.52,0,0,0,0,11.59v3.73a2.54,2.54,0,0,0,2.53,2.53h1.7A.85.85,0,0,0,5.09,17v-3.3A12.08,12.08,0,1,1,20.74,25.29,2.62,2.62,0,0,0,18.48,24H15.81a2.64,2.64,0,1,0,0,5.27h2.67a2.65,2.65,0,0,0,2.62-2.42,13.78,13.78,0,0,0,6.8-4.62,14.15,14.15,0,0,0,2.35-4.41h1.51a2.5,2.5,0,0,0,2.48-2.53V11.59A2.51,2.51,0,0,0,32.51,9.19Zm-14,18.47H15.81a1,1,0,1,1,0-2h2.67a1,1,0,0,1,1,.77h0a1.49,1.49,0,0,1,0,.21A1,1,0,0,1,18.48,27.66Z" style="fill:#fff"/></g></g></g></svg>