<svg xmlns="http://www.w3.org/2000/svg" xmlns:xlink="http://www.w3.org/1999/xlink" width="19" height="15" viewBox="0 0 19 15"><defs><path id="4twxa" d="M40.365 528.34a2.304 2.304 0 0 0-.334-.022h-1.252v-.842l.764-.841c.382-.421.592-.966.592-1.534v-1.963a2.444 2.444 0 0 0-2.441-2.441.382.382 0 1 0 0 .764c.925 0 1.677.752 1.677 1.677v1.963c0 .378-.14.74-.394 1.02l-.786.866a.383.383 0 0 0-.176.322v1.39c0 .21.17.382.382.382h1.634a1.64 1.64 0 0 1 1.638 1.638v2.395h-9.095v-2.395c0-.704.447-1.306 1.072-1.537a.348.348 0 0 0 .084-.03c.153-.045.315-.071.482-.071h1.635a.382.382 0 0 0 .382-.382v-1.39a.383.383 0 0 0-.176-.322l-.787-.866a1.515 1.515 0 0 1-.394-1.02v-1.963c0-.925.752-1.677 1.677-1.677a.382.382 0 1 0 0-.764 2.443 2.443 0 0 0-2.44 2.44v1.964c0 .568.21 1.113.592 1.533l.764.842v.842h-1.253c-.106 0-.211.006-.314.02a2.18 2.18 0 0 0-2.124-1.705h-1.07v-.688l.668-.735a2.06 2.06 0 0 0 .537-1.39v-1.743c0-1.218-.991-2.21-2.21-2.21h-1.016c-1.22 0-2.21.992-2.21 2.21v1.743c0 .515.19 1.009.537 1.39l.667.735v.688h-1.07c-1.2 0-2.174.976-2.174 2.175v2.467c0 .21.17.38.382.38h5.94a.381.381 0 1 0 0-.762h-5.558v-2.085c0-.78.632-1.411 1.41-1.411h1.452a.382.382 0 0 0 .382-.382v-1.235a.382.382 0 0 0-.171-.318l-.695-.765a1.304 1.304 0 0 1-.338-.877v-1.743c0-.798.648-1.446 1.446-1.446h1.016c.798 0 1.447.648 1.447 1.446v1.743c0 .325-.121.636-.34.877l-.694.765a.382.382 0 0 0-.171.318v1.235c0 .21.17.382.382.382h1.45c.695 0 1.272.502 1.39 1.162a2.403 2.403 0 0 0-1.352 2.16v2.777c0 .21.17.382.382.382h9.858a.382.382 0 0 0 .382-.382v-2.777c0-.941-.545-1.757-1.335-2.15z"/></defs><g><g transform="translate(-24 -519)"><use fill="#fff" xlink:href="#4twxa"/></g></g></svg>