<svg xmlns="http://www.w3.org/2000/svg" viewBox="0 0 20.5 18.11"><g data-name="Layer 2"><path fill="#f93030" d="M20.31 16.1a1.33 1.33 0 0 1-1.16 2h-8.9v-2.08a1.06 1.06 0 1 0 0-2.12v-.75a.85.85 0 0 0 .86-.82l.17-5.86a1.13 1.13 0 0 0-.17-.6l2.48-1.43zM11.42.67l2.17 3.77-2.48 1.43a1 1 0 0 0-.85-.44 1 1 0 0 0-.84.44l-2.5-1.44L9.09.67a1.35 1.35 0 0 1 2.33 0z"/><path fill="#fff" d="M11.11 5.87a1.13 1.13 0 0 1 .17.6l-.17 5.86a.85.85 0 0 1-1.7 0l-.17-5.86a1.06 1.06 0 0 1 .18-.6 1 1 0 0 1 .84-.44 1 1 0 0 1 .85.44zM10.25 13.9a1.06 1.06 0 1 1-1.06 1.06 1.07 1.07 0 0 1 1.06-1.06z"/><path fill="#f93030" d="M10.25 16.02v2.09H1.34a1.34 1.34 0 0 1-1.16-2L6.92 4.43l2.5 1.44a1.06 1.06 0 0 0-.18.6l.17 5.86a.85.85 0 0 0 .84.82v.75a1.06 1.06 0 0 0 0 2.12z"/></g></svg>