<svg xmlns="http://www.w3.org/2000/svg" viewBox="0 0 73.02 55.46"><g data-name="Layer 2"><g stroke="#515151" stroke-miterlimit="10" stroke-width=".25" data-name="Магазин / виджеты"><path fill="#d1dbef" d="M69.13.13H3.89A3.76 3.76 0 0 0 .13 3.89v47.68a3.76 3.76 0 0 0 3.76 3.76h65.24a3.76 3.76 0 0 0 3.77-3.76V3.89A3.76 3.76 0 0 0 69.13.13zm-6.27 2.5h1.25a1.26 1.26 0 1 1 0 2.51h-1.25a1.26 1.26 0 0 1 0-2.51zm-35.13 0h30.11a1.26 1.26 0 1 1 0 2.51H27.73a1.26 1.26 0 1 1 0-2.51zm-6.28 0h1.26a1.26 1.26 0 0 1 0 2.51h-1.26a1.26 1.26 0 0 1 0-2.51zm-5 0h1.25a1.26 1.26 0 1 1 0 2.51h-1.26a1.26 1.26 0 1 1 0-2.51zm-5 0a1.26 1.26 0 1 1-1.26 1.26 1.26 1.26 0 0 1 1.23-1.26zm-3.77 0A1.26 1.26 0 1 1 6.4 3.89a1.26 1.26 0 0 1 1.25-1.26zm-3.76 0a1.26 1.26 0 1 1-1.29 1.26 1.26 1.26 0 0 1 1.26-1.26zm66.5 12.55v36.39a1.25 1.25 0 0 1-1.26 1.25H3.89a1.26 1.26 0 0 1-1.26-1.25V8.91a1.27 1.27 0 0 1 1.26-1.26h65.24a1.26 1.26 0 0 1 1.26 1.26zm-1.26-10h-1.28a1.26 1.26 0 1 1 0-2.51h1.25a1.26 1.26 0 1 1 0 2.51z" opacity=".8"/><path fill="#fff" d="M2.63 51.57a1.26 1.26 0 0 0 1.26 1.25h65.24a1.25 1.25 0 0 0 1.26-1.25V15.18H2.63zm54-30.12V20.2a1.25 1.25 0 0 1 1.21-1.2h7.53a1.25 1.25 0 0 1 1.25 1.25v11.24a1.25 1.25 0 0 1-1.25 1.26h-7.53a1.25 1.25 0 0 1-1.25-1.26zm-13.81 0V20.2A1.26 1.26 0 0 1 44 19h7.53a1.25 1.25 0 0 1 1.25 1.25v11.24a1.25 1.25 0 0 1-1.25 1.26H44a1.26 1.26 0 0 1-1.26-1.26zm0 16.32A1.26 1.26 0 0 1 44 36.51h21.37a1.25 1.25 0 0 1 1.25 1.26v10a1.25 1.25 0 0 1-1.25 1.26H44a1.26 1.26 0 0 1-1.26-1.26v-10zM29 21.45V20.2a1.25 1.25 0 0 1 1.24-1.2h7.53A1.25 1.25 0 0 1 39 20.2v11.29a1.25 1.25 0 0 1-1.25 1.26h-7.51A1.25 1.25 0 0 1 29 31.49zm-22.58 0V20.2A1.25 1.25 0 0 1 7.65 19H24a1.25 1.25 0 0 1 1.26 1.25v11.24A1.25 1.25 0 0 1 24 32.75H7.65a1.25 1.25 0 0 1-1.25-1.26zm0 16.32a1.25 1.25 0 0 1 1.25-1.26h30.1A1.25 1.25 0 0 1 39 37.77v10a1.25 1.25 0 0 1-1.25 1.26H7.65A1.25 1.25 0 0 1 6.4 47.8v-10z"/><circle cx="3.89" cy="3.89" r="1.25" fill="#ff6469"/><circle cx="7.65" cy="3.89" r="1.25" fill="#ffe069"/><circle cx="11.42" cy="3.89" r="1.25" fill="#86e0a9"/><path fill="#e3e9f5" d="M16.44 5.14h1.25a1.26 1.26 0 1 0 0-2.51h-1.25a1.26 1.26 0 1 0 0 2.51zM21.45 5.14h1.26a1.26 1.26 0 0 0 0-2.51h-1.26a1.26 1.26 0 0 0 0 2.51zM62.86 5.14h1.25a1.26 1.26 0 1 0 0-2.51h-1.25a1.26 1.26 0 0 0 0 2.51zM69.13 2.63h-1.25a1.26 1.26 0 1 0 0 2.51h1.25a1.26 1.26 0 1 0 0-2.51zM27.73 5.14h30.11a1.26 1.26 0 1 0 0-2.51H27.73a1.26 1.26 0 1 0 0 2.51z"/><path fill="#7a85fb" d="M69.13 7.65H3.89a1.27 1.27 0 0 0-1.26 1.26v6.27h67.76V8.91a1.26 1.26 0 0 0-1.26-1.26zm-52.69 5H6.4a1.26 1.26 0 1 1 0-2.51h10a1.26 1.26 0 0 1 0 2.51zm10 0h-5a1.26 1.26 0 0 1 0-2.51h5a1.26 1.26 0 1 1 0 2.51zm10 0h-5a1.26 1.26 0 0 1 0-2.51h5a1.26 1.26 0 1 1 0 2.51zm10 0h-5a1.26 1.26 0 0 1 0-2.51h5a1.26 1.26 0 0 1 0 2.51zm10 0h-5a1.26 1.26 0 1 1 0-2.51h5a1.26 1.26 0 0 1 0 2.51zm10 0h-5a1.26 1.26 0 1 1 0-2.51h5a1.26 1.26 0 1 1 0 2.51z"/><path fill="#ffdb69" d="M16.44 10.16H6.4a1.26 1.26 0 1 0 0 2.51h10a1.26 1.26 0 0 0 0-2.51z"/><path fill="#fff" d="M26.47 10.16h-5a1.26 1.26 0 0 0 0 2.51h5a1.26 1.26 0 1 0 0-2.51zM36.51 10.16h-5a1.26 1.26 0 0 0 0 2.51h5a1.26 1.26 0 1 0 0-2.51zM46.55 10.16h-5a1.26 1.26 0 0 0 0 2.51h5a1.26 1.26 0 0 0 0-2.51zM56.59 10.16h-5a1.26 1.26 0 1 0 0 2.51h5a1.26 1.26 0 0 0 0-2.51zM66.62 10.16h-5a1.26 1.26 0 1 0 0 2.51h5a1.26 1.26 0 1 0 0-2.51z"/><g fill="#e8ebf1" opacity=".39"><path d="M7.65 32.75H24a1.25 1.25 0 0 0 1.26-1.26v-10A1.25 1.25 0 0 1 24 22.71H7.65a1.25 1.25 0 0 1-1.25-1.26v10a1.25 1.25 0 0 0 1.25 1.3zM30.24 32.75h7.53A1.25 1.25 0 0 0 39 31.49v-10a1.25 1.25 0 0 1-1.25 1.26h-7.51a1.25 1.25 0 0 1-1.24-1.3v10a1.25 1.25 0 0 0 1.24 1.3zM44 32.75h7.53a1.25 1.25 0 0 0 1.25-1.26v-10a1.25 1.25 0 0 1-1.25 1.26H44a1.26 1.26 0 0 1-1.26-1.26v10A1.26 1.26 0 0 0 44 32.75zM57.84 32.75h7.53a1.25 1.25 0 0 0 1.25-1.26v-10a1.25 1.25 0 0 1-1.25 1.26h-7.53a1.25 1.25 0 0 1-1.25-1.26v10a1.25 1.25 0 0 0 1.25 1.26z"/></g><path fill="#ffdb69" d="M7.65 22.71H24a1.25 1.25 0 0 0 1.26-1.26V20.2A1.25 1.25 0 0 0 24 19H7.65a1.25 1.25 0 0 0-1.25 1.2v1.25a1.25 1.25 0 0 0 1.25 1.26z"/><path fill="#b3e073" d="M30.24 22.71h7.53A1.25 1.25 0 0 0 39 21.45V20.2a1.25 1.25 0 0 0-1.23-1.2h-7.53A1.25 1.25 0 0 0 29 20.2v1.25a1.25 1.25 0 0 0 1.24 1.26z"/><path fill="#9fdbef" d="M57.84 22.71h7.53a1.25 1.25 0 0 0 1.25-1.26V20.2a1.25 1.25 0 0 0-1.25-1.2h-7.53a1.25 1.25 0 0 0-1.25 1.25v1.25a1.25 1.25 0 0 0 1.25 1.21z"/><g fill="#e8ebf1" opacity=".39"><path d="M10.16 37.77v10a1.25 1.25 0 0 1-1.25 1.26h28.86A1.25 1.25 0 0 0 39 47.8v-10a1.25 1.25 0 0 0-1.25-1.26H8.91a1.25 1.25 0 0 1 1.25 1.23zM46.55 37.77v10a1.25 1.25 0 0 1-1.26 1.26h20.08a1.25 1.25 0 0 0 1.25-1.26v-10a1.25 1.25 0 0 0-1.25-1.26H45.29a1.25 1.25 0 0 1 1.26 1.26z"/></g><path fill="#c2b3f9" d="M7.65 49.06h1.26a1.25 1.25 0 0 0 1.25-1.26v-10a1.25 1.25 0 0 0-1.25-1.26H7.65a1.25 1.25 0 0 0-1.25 1.23v10a1.25 1.25 0 0 0 1.25 1.29z"/><path fill="#90e5bd" d="M44 49.06h1.25a1.25 1.25 0 0 0 1.26-1.26v-10a1.25 1.25 0 0 0-1.26-1.26H44a1.26 1.26 0 0 0-1.26 1.26v10A1.26 1.26 0 0 0 44 49.06z"/></g></g></svg>