<svg xmlns="http://www.w3.org/2000/svg" xmlns:xlink="http://www.w3.org/1999/xlink" width="50" height="38"><defs><path id="a" d="M1151 289.637l-22.5-8.564 22.5-7.332 22.5 7.332z"/><path id="b" d="M1151 289.637l-22.5-8.564 22.5-7.332 22.5 7.332-22.5 8.564z"/><path id="c" d="M1151 273.742l22.5 7.33-22.5 8.566"/><path id="d" d="M1151 294.065l-16.983-6.46-5.517 1.814 22.5 8.565 22.5-8.564-5.517-1.814z"/><path id="e" d="M1151 294.065l-16.983-6.46-5.517 1.814 22.5 8.565 22.5-8.564-5.517-1.814-16.983 6.459z"/><path id="f" d="M1151 297.984l22.5-8.564-5.517-1.815-16.983 6.46"/><path id="g" d="M1151 302.411l-16.983-6.459-5.517 1.814 22.5 8.492 22.5-8.492-5.517-1.814z"/><path id="h" d="M1151 302.411l-16.983-6.459-5.517 1.814 22.5 8.492 22.5-8.492-5.517-1.814-16.983 6.46z"/><path id="i" d="M1151 306.258l22.5-8.492-5.517-1.815-16.983 6.46"/></defs><g opacity=".64"><use fill="#ffc139" opacity=".64" transform="translate(-1126 -271)" xlink:href="#a"/><use fill="#fff" fill-opacity="0" stroke="#7a7a7a" stroke-miterlimit="50" stroke-width=".25" opacity=".64" transform="translate(-1126 -271)" xlink:href="#b"/></g><g opacity=".64" transform="translate(-1126 -271)"><use fill="#eea81b" xlink:href="#c"/><use fill="#fff" fill-opacity="0" stroke="#7a7a7a" stroke-miterlimit="50" stroke-width=".25" xlink:href="#c"/></g><g opacity=".64"><use fill="#6c8fdc" opacity=".64" transform="translate(-1126 -271)" xlink:href="#d"/><use fill="#fff" fill-opacity="0" stroke="#7a7a7a" stroke-miterlimit="50" stroke-width=".25" opacity=".64" transform="translate(-1126 -271)" xlink:href="#e"/></g><g opacity=".64" transform="translate(-1126 -271)"><use fill="#3c74c5" xlink:href="#f"/><use fill="#fff" fill-opacity="0" stroke="#7a7a7a" stroke-miterlimit="50" stroke-width=".25" xlink:href="#f"/></g><g opacity=".64"><use fill="#f34d3b" opacity=".64" transform="translate(-1126 -271)" xlink:href="#g"/><use fill="#fff" fill-opacity="0" stroke="#7a7a7a" stroke-miterlimit="50" stroke-width=".25" opacity=".64" transform="translate(-1126 -271)" xlink:href="#h"/></g><g opacity=".64" transform="translate(-1126 -271)"><use fill="#c32014" xlink:href="#i"/><use fill="#fff" fill-opacity="0" stroke="#7a7a7a" stroke-miterlimit="50" stroke-width=".25" xlink:href="#i"/></g></svg>