<svg xmlns="http://www.w3.org/2000/svg" viewBox="0 0 18.34 19.96"><g data-name="Layer 2"><g data-name="Layer 1"><g data-name="Layer 2"><path fill="#599e2d" d="M17.16 5a10.32 10.32 0 0 1-.87 6.3c-1.28 2.56-5.72 8.46-8 7C2.47 14.58-.53 6 1.69 4.5c7.1-2.39 5.9-5.13 15.47.5z"/><path fill="#fff" d="M13.12 6.69L12.11 7.7l-3.76 3.76-1.91-1.9-.26-.26-.51.51-.51.51 3.19 3.19 5.79-5.8-1.02-1.02z" style="isolation:isolate"/><path fill="#599e2d" d="M9.17 18.36a13.23 13.23 0 0 1-4.47-3.7 15.2 15.2 0 0 1-2.38-4.61 18.86 18.86 0 0 1-.86-5 16.94 16.94 0 0 0 2.89-.71 18.46 18.46 0 0 0 2.78-1.19 18.4 18.4 0 0 0 2-1.29 20.75 20.75 0 0 0 2 1.29A18.15 18.15 0 0 0 14 4.39a16 16 0 0 0 2.89.71A19 19 0 0 1 16 10a15.1 15.1 0 0 1-2.37 4.64 13 13 0 0 1-4.46 3.72zm9.17-13.93v-.62l-.62-.07a15.72 15.72 0 0 1-5.78-1.84A15.19 15.19 0 0 1 9.64.39L9.18 0l-.47.39a15.19 15.19 0 0 1-2.3 1.51A15.81 15.81 0 0 1 .65 3.74L0 3.81v.62a19.38 19.38 0 0 0 .93 6 16.31 16.31 0 0 0 2.6 5.08 14.67 14.67 0 0 0 5.33 4.3l.31.15.32-.15a14.67 14.67 0 0 0 5.33-4.3 16.31 16.31 0 0 0 2.6-5.08 18.8 18.8 0 0 0 .92-6z" style="isolation:isolate"/></g></g></g></svg>