<svg xmlns="http://www.w3.org/2000/svg" xmlns:xlink="http://www.w3.org/1999/xlink" width="12" height="11"><defs><path id="a" d="M634.864 268.41a1.186 1.186 0 1 1 0 2.372 1.186 1.186 0 0 1 0-2.371z"/><path id="b" d="M641.136 268.41a1.186 1.186 0 1 1-.001 2.372 1.186 1.186 0 0 1 0-2.371z"/><path id="c" d="M643.61 273.749a.547.547 0 0 0-.68.367c-.009.032-1.02 3.263-4.93 3.263-3.884 0-4.89-3.132-4.932-3.265a.546.546 0 0 0-1.045.315 6.127 6.127 0 0 0 5.977 4.042 6.126 6.126 0 0 0 5.976-4.043.545.545 0 0 0-.366-.679z"/></defs><g ><use fill="#20b091"  transform="translate(-632 -268)" xlink:href="#a"/><use fill="#20b091"  transform="translate(-632 -268)" xlink:href="#b"/><use fill="#20b091"  transform="translate(-632 -268)" xlink:href="#c"/></g></svg>