<svg xmlns="http://www.w3.org/2000/svg" viewBox="0 0 109.24 92.43"><g fill="#80BBF3"><path stroke="#fff" stroke-miterlimit="10" stroke-width="5" d="M51.3 75.33H2.5v-7c0-8.55 9.56-21.26 28.36-22.14v-6a20.22 20.22 0 0 1-9.61-22.63A20 20 0 0 1 36 3.06a20.19 20.19 0 0 1 14.74 37.16v6a39.64 39.64 0 0 1 4.92.53"/><path d="M106.53 60.27h-4.93a1.89 1.89 0 0 1-1.33-3.27l3.48-3.48a2.72 2.72 0 0 0 0-3.83l-4.44-4.44a2.78 2.78 0 0 0-3.83 0L92 48.77a1.89 1.89 0 0 1-3.23-1.33v-4.93a2.71 2.71 0 0 0-2.71-2.71h-6.27a2.71 2.71 0 0 0-2.71 2.71v4.93a1.89 1.89 0 0 1-3.23 1.33l-3.48-3.48a2.78 2.78 0 0 0-3.83 0l-4.44 4.44a2.72 2.72 0 0 0 0 3.83L65.58 57a1.89 1.89 0 0 1-1.34 3.23h-4.92A2.71 2.71 0 0 0 56.61 63v6.27A2.71 2.71 0 0 0 59.32 72h4.92a1.89 1.89 0 0 1 1.34 3.23l-3.48 3.44a2.72 2.72 0 0 0 0 3.83l4.44 4.44a2.77 2.77 0 0 0 3.83 0l3.48-3.48a1.89 1.89 0 0 1 3.23 1.34v4.92a2.71 2.71 0 0 0 2.71 2.71h6.27a2.71 2.71 0 0 0 2.71-2.71V84.8A1.89 1.89 0 0 1 92 83.46l3.48 3.48a2.77 2.77 0 0 0 3.83 0l4.44-4.44a2.72 2.72 0 0 0 0-3.83l-3.48-3.48A1.89 1.89 0 0 1 101.6 72h4.93a2.71 2.71 0 0 0 2.71-2.71V63a2.71 2.71 0 0 0-2.71-2.73zm.76 9a.76.76 0 0 1-.76.76h-4.93a3.84 3.84 0 0 0-2.71 6.56l3.48 3.48a.76.76 0 0 1 0 1.08l-4.44 4.43a.75.75 0 0 1-1.07 0l-3.48-3.48a3.84 3.84 0 0 0-6.56 2.72v4.92a.76.76 0 0 1-.76.76h-6.27a.76.76 0 0 1-.76-.76V84.8a3.77 3.77 0 0 0-2.37-3.55 4 4 0 0 0-1.5-.3 3.8 3.8 0 0 0-2.69 1.13L69 85.56a.75.75 0 0 1-1.07 0l-4.44-4.44a.75.75 0 0 1 0-1.07L67 76.57A3.84 3.84 0 0 0 64.24 70h-4.92a.76.76 0 0 1-.76-.76V63a.76.76 0 0 1 .76-.76h4.92A3.84 3.84 0 0 0 67 55.66l-3.48-3.48a.75.75 0 0 1 0-1.07l4.44-4.44a.75.75 0 0 1 1.07 0l3.48 3.48A3.84 3.84 0 0 0 79 47.44v-4.93a.76.76 0 0 1 .76-.76h6.27a.76.76 0 0 1 .76.76v4.93a3.84 3.84 0 0 0 6.56 2.71l3.48-3.48a.75.75 0 0 1 1.07 0l4.44 4.44a.75.75 0 0 1 0 1.07l-3.48 3.48a3.84 3.84 0 0 0 2.71 6.56h4.93a.76.76 0 0 1 .76.76z"/><path d="M82.92 57.35a8.77 8.77 0 1 0 8.78 8.77 8.78 8.78 0 0 0-8.78-8.77zm0 15.59a6.83 6.83 0 1 1 6.83-6.82 6.83 6.83 0 0 1-6.83 6.82z"/></g></svg>