<svg xmlns="http://www.w3.org/2000/svg" viewBox="0 0 1029 202"><defs><linearGradient id="a" x1="206.75" x2="822.25" y1="408.75" y2="-206.75" gradientUnits="userSpaceOnUse"><stop offset="0" stop-color="#29aae1" stop-opacity=".05"/><stop offset=".47" stop-color="#29aae1" stop-opacity=".18"/><stop offset=".54" stop-color="#29aae1" stop-opacity=".2"/><stop offset=".77" stop-color="#29aae1" stop-opacity=".14"/><stop offset="1" stop-color="#29aae1" stop-opacity=".1"/></linearGradient></defs><g data-name="Layer 2"><g data-name="Панель управления_Шапка"><path fill="url(#a)" d="M0 0h1029v202H0z"/><g opacity=".05"><path fill="#7ed1ff" d="M583.47 75.47a22.62 22.62 0 1 0 21.1 21.11 22.63 22.63 0 0 0-21.1-21.11zm.26 39.42a16.93 16.93 0 1 1 15.11-15.12 16.94 16.94 0 0 1-15.11 15.12z"/><ellipse cx="582" cy="98.05" fill="#fff" rx="16.96" ry="16.9" transform="rotate(-45.01 581.9720938 98.05507574)"/><path fill="#3cb0fd" d="M585.31 81.45a16.82 16.82 0 0 0-6-.12 16.93 16.93 0 0 1 0 33.43 16.92 16.92 0 0 0 6-33.31z"/><path fill="#07579f" d="M584.57 121.62a23.71 23.71 0 1 1 21-21 23.74 23.74 0 0 1-21 21zm-.81-45a21.54 21.54 0 1 0 19.71 19.71 21.56 21.56 0 0 0-19.71-19.75zm-.29 39.38A18 18 0 1 1 600 99.52 18 18 0 0 1 583.47 116zm.15-33.72a15.85 15.85 0 1 0 14.14 14.14 15.87 15.87 0 0 0-14.14-14.14z"/><path fill="#07579f" d="M583 102a3.61 3.61 0 0 1-4.45-4.44A3.54 3.54 0 0 1 581 95a3.61 3.61 0 0 1 4.45 4.44A3.55 3.55 0 0 1 583 102zm-1-4.9a1.43 1.43 0 1 0 1.43 1.43 1.44 1.44 0 0 0-1.43-1.46z"/><path fill="#07579f" d="M577 105.59a1.09 1.09 0 0 1-.94-.55 1.12 1.12 0 0 1 .22-1.35L580 100a1.09 1.09 0 0 1 1.53 0 1.1 1.1 0 0 1 0 1.54l-3.73 3.73a1.11 1.11 0 0 1-.8.32z"/></g><g opacity=".05"><path fill="#fff" d="M220.74 23.4h27.37v47.48h-27.37z"/><path fill="#7ed1ff" d="M249.24 30.24V23.4a1.13 1.13 0 0 0-1.13-1.13h-27.37a1.14 1.14 0 0 0-1.13 1.13v6.84zM219.61 63.84v7a1.14 1.14 0 0 0 1.13 1.16h27.37a1.13 1.13 0 0 0 1.13-1.14v-7z"/><path fill="#07579f" d="M248.11 73.15h-27.37a2.26 2.26 0 0 1-2.26-2.26V23.4a2.26 2.26 0 0 1 2.26-2.26h27.37a2.26 2.26 0 0 1 2.26 2.26v47.48a2.27 2.27 0 0 1-2.26 2.27zm0-49.75h-27.37v47.49h27.37V23.4z"/><path fill="#07579f" d="M250.37 31.37h-31.89v-8a2.26 2.26 0 0 1 2.26-2.26h27.37a2.26 2.26 0 0 1 2.26 2.26zm-29.63-2.26h27.37V23.4h-27.37zM248.11 73.15h-27.37a2.26 2.26 0 0 1-2.26-2.26v-8.18h31.89v8.17a2.27 2.27 0 0 1-2.26 2.27zM220.74 65v5.92h27.37V65z"/><path fill="#1a92ed" d="M236 69.44a2.27 2.27 0 0 0-3.21-3.2 2.27 2.27 0 0 0 3.21 3.2zM224.52 34.22h4.21v3.04h-4.21zM224.52 39.59h19.81v8.22h-19.81z"/><path fill="#1a92ed" d="M224.52 34.22h4.21v3.04h-4.21zM224.52 50.62h19.81v5.64h-19.81z"/><path fill="#fff" d="M258 19.45c-9.07-5.84-18.73 3.81-12.89 12.89a5.17 5.17 0 0 0 1.51 1.51c9.12 5.84 18.77-3.85 12.93-12.85a5.06 5.06 0 0 0-1.55-1.55z"/><ellipse cx="252.35" cy="26.65" fill="#1a92ed" rx="7.07" ry="4.31" transform="rotate(-45 252.358638 26.64962956)"/><path fill="#fff" d="M251.53 29.61h-.01l-.76.76-3.08-3.09 1.72-1.72 1.37 1.37 4.54-4.54 1.72 1.72-5.5 5.5z"/></g><g opacity=".05"><path fill="#07579f" d="M767.49 146.83h-12.32l-22.34-8.11v-36.38a2.48 2.48 0 0 1 2.48-2.48h34.55a2.48 2.48 0 0 1 2.48 2.48v38.47a6.12 6.12 0 0 1-4.72 6zm-11.88-2.48h11.57a3.71 3.71 0 0 0 2.69-3.54v-38.47h-34.56V137z"/><path fill="#fff" d="M755.61 144.35h11.57a3.71 3.71 0 0 0 2.69-3.54v-38.47h-34.56V137z"/><circle cx="774.24" cy="125.63" r="8.91" fill="#fff" transform="rotate(-46.18 774.1717955 125.6503445)"/><circle cx="774.24" cy="125.63" r="6.8" fill="#1a92ed"/><path fill="#7ed1ff" d="M766 145.59a5 5 0 0 1-4.84-5v-2.94h-30.7v.26a7.73 7.73 0 0 0 7.71 7.71z"/><path fill="#07579f" d="M766 146.83h-27.83a9 9 0 0 1-8.95-9v-1.51h33.18v4.19a3.75 3.75 0 0 0 3.6 3.79zm-34.27-8a6.48 6.48 0 0 0 6.4 5.49h23a6.35 6.35 0 0 1-1.24-3.79v-1.7zM762.26 111.64h-20.09a1.24 1.24 0 0 1 0-2.48h20.09a1.24 1.24 0 1 1 0 2.48zM762.26 119.73h-20.09a1.24 1.24 0 0 1 0-2.48h20.09a1.24 1.24 0 1 1 0 2.48zM752.77 128.38h-10.6a1.24 1.24 0 0 1 0-2.48h10.6a1.24 1.24 0 1 1 0 2.48z"/><path fill="#fff" d="M777.61 125.39l-3.42-3.59-3.42 3.59h2.02v4.12h2.8v-4.12h2.02z"/><circle cx="730.98" cy="103.62" r="7.4" fill="#fff" transform="rotate(-44.02 731.02071469 103.61884324)"/><circle cx="730.98" cy="103.62" r="5.65" fill="#1a92ed" transform="rotate(-44.25 731.04578762 103.60741996)"/><path fill="#fff" d="M727.67 104.2l3.03 3.19 3.04-3.19h-1.79v-3.66h-2.49v3.66h-1.79z"/></g><g opacity=".05"><path fill="#7ed1ff" d="M125.11 150.85h11.19v1.22a5.59 5.59 0 0 1-5.59 5.59 5.59 5.59 0 0 1-5.59-5.59v-1.22h-.01z"/><path fill="#07579f" d="M136.84 148.05h-12.5a2.15 2.15 0 0 1-1.82-2.18c0-1.3-.35-4.91-1.87-6.52-.13-.14-11.17-12.68-3.34-24.06a17.3 17.3 0 0 1 13.28-7h.18a17.35 17.35 0 0 1 13.33 7c7.82 11.37-3.22 23.91-3.34 24-1.54 1.64-1.88 5.3-1.88 6.57v.18l-.06.18c-.57 1.63-1.56 1.81-2 1.81zm-12.15-2.18h11.92l.1-.2c0-1 .27-5.51 2.45-7.83a26.31 26.31 0 0 0 4.22-7c2.13-5.36 1.77-10.18-1.08-14.33a15.42 15.42 0 0 0-11.57-6h-.1a15.31 15.31 0 0 0-11.52 6c-2.86 4.15-3.22 9-1.09 14.33a26.63 26.63 0 0 0 4.23 7c2.4 2.56 2.44 7.75 2.44 8.03z"/><path fill="#fff" d="M124.69 145.87h11.92l.1-.2c0-1 .27-5.51 2.45-7.83a26.31 26.31 0 0 0 4.22-7c2.13-5.36 1.77-10.18-1.08-14.33a15.42 15.42 0 0 0-11.57-6h-.1a15.31 15.31 0 0 0-11.52 6c-2.86 4.15-3.22 9-1.09 14.33a26.63 26.63 0 0 0 4.23 7c2.4 2.56 2.44 7.75 2.44 8.03z"/><path fill="#07579f" d="M137.9 151.56h-14.4a2.8 2.8 0 0 1 0-5.59h14.4a2.8 2.8 0 0 1 0 5.59zm-14.4-3.41a.61.61 0 0 0-.62.61.62.62 0 0 0 .62.62h14.4a.62.62 0 0 0 .62-.62.61.61 0 0 0-.62-.61z"/><path fill="#fff" d="M123.5 148.15a.61.61 0 0 0-.62.61.62.62 0 0 0 .62.62h14.4a.62.62 0 0 0 .62-.62.61.61 0 0 0-.62-.61z"/><path fill="#07579f" d="M130.7 158.76a6.69 6.69 0 0 1-6.68-6.68v-2.31h13.36v2.31a6.69 6.69 0 0 1-6.68 6.68zm-4.51-6.82v.14a4.51 4.51 0 0 0 9 0v-.14zM129.16 146.67H127v-21h-1a3.22 3.22 0 1 1 3.22-3.21v1h1.66v2.18h-1.66zm-3.22-25.27a1 1 0 0 0 0 2.07h1v-1a1 1 0 0 0-1-1.07z"/><path fill="#07579f" d="M134.42 146.67h-2.18v-21h-1.66v-2.18h1.66v-1a3.22 3.22 0 1 1 3.21 3.21h-1zm0-23.2h1a1 1 0 1 0-1-1z"/></g><g opacity=".05"><path fill="#0063ce" d="M491.9 147.94a3 3 0 1 1 0-5.92 3 3 0 1 1 0 5.92zm9.21-5.7l-8.68 13.25h-2.68l8.7-13.25zm-9.21 4a1.24 1.24 0 0 0 0-2.48 1.24 1.24 0 0 0 0 2.45zm7.17 9.39a3 3 0 1 1 0-5.92 3 3 0 1 1 0 5.89zm0-1.71a1.24 1.24 0 0 0 0-2.48 1.24 1.24 0 0 0 0 2.45z"/><path fill="#fff" d="M508.64 151.81l6.79 1.82a20.54 20.54 0 0 0-.26-9.46 20.07 20.07 0 0 0-2-4.91 20 20 0 0 0-7.46-7.46 20.2 20.2 0 0 0-9.07-2.7v7a13.45 13.45 0 0 1 2.35.41 13.14 13.14 0 0 1 3.22 1.34 13.24 13.24 0 0 1 4.89 4.89 13.14 13.14 0 0 1 1.3 3.26 13.09 13.09 0 0 1 .24 5.83z"/><path fill="#1a92ed" d="M501.61 160.05a12 12 0 0 1-2.95 1.23 12.27 12.27 0 0 1-15-8.67l-8.93 2.39a21.36 21.36 0 0 0 2.15 5.19 21.73 21.73 0 0 0 3.41 4.45 21.47 21.47 0 0 0 25.94 3.41z"/><path fill="#7ed1ff" d="M489.92 128.68a21.54 21.54 0 0 0-15.19 15.2l8.92 2.39a12.46 12.46 0 0 1 3.17-5.49 12.14 12.14 0 0 1 8.67-3.59V128a21.75 21.75 0 0 0-5.57.68z"/><path fill="#1a92ed" d="M517.1 150.82c0 .17-.09.34-.13.51h-9.23c0-.63.08-1.23.13-1.9h9.23zM495.63 137.22v-.58h16.66a.79.79 0 0 1 .78.41c.29.48.62.94 1 1.48H501.36a1.51 1.51 0 0 1-.52-.06c-.84-.28-1.66-.64-2.51-.85a26.9 26.9 0 0 0-2.7-.4zM511.57 135.33h-15.92v-1.9h13.65a1.16 1.16 0 0 1 .9.34c.48.49 1 .94 1.51 1.4zM515.63 141.74h-10.21a1 1 0 0 1-.62-.28c-.52-.53-1-1.1-1.49-1.66l-.12.07a2.58 2.58 0 0 1 .39 0h10.71a.62.62 0 0 1 .69.43c.19.43.41.91.65 1.44zM495.63 132.1v-1.88h8.87a2.26 2.26 0 0 1 1 .23 20.23 20.23 0 0 1 2.5 1.65zM506 143h9.62c.37 0 .54.11.62.47s.23.93.36 1.43h-9.15a.64.64 0 0 1-.71-.46A13.5 13.5 0 0 0 506 143zM507.41 146.26h9.44l.19 1.87h-8.75c-.38 0-.58-.06-.6-.51a9.9 9.9 0 0 0-.28-1.36zM516.87 152.67c-.12.62-.23 1.23-.37 2a22.78 22.78 0 0 1-2.91-.28c-1.91-.43-3.78-1-5.67-1.49a1 1 0 0 1-.38-.19zM495.63 128.9v-.81a17.77 17.77 0 0 1 5.71.81z"/><path fill="#07579f" d="M484.44 147.63l-11.08-3 .29-1.08a22.64 22.64 0 0 1 5.85-10.13 22.61 22.61 0 0 1 10.14-5.85 22.64 22.64 0 0 1 5.85-.77h1.11v11.5h-1.11a11.3 11.3 0 0 0-2.89.38 11.41 11.41 0 0 0-5 2.88 11.42 11.42 0 0 0-1.77 2.31 11.07 11.07 0 0 0-1.11 2.69zm-8.32-4.53l6.79 1.82a13.22 13.22 0 0 1 1-2.16 13.24 13.24 0 0 1 4.89-4.89 13.39 13.39 0 0 1 5.57-1.75v-7a20.26 20.26 0 0 0-4.16.66 20.23 20.23 0 0 0-4.91 2 20.22 20.22 0 0 0-7.46 7.46 20.31 20.31 0 0 0-1.72 3.86z"/><path fill="#07579f" d="M517 156.37l-11.07-3 .29-1.07a11.14 11.14 0 0 0 0-5.77 11.26 11.26 0 0 0-2.89-5 11.31 11.31 0 0 0-2.3-1.76 11.1 11.1 0 0 0-2.69-1.12 11.22 11.22 0 0 0-2.88-.38h-1.12v-11.43h1.12a22.62 22.62 0 0 1 16 6.62 22.22 22.22 0 0 1 3.59 4.68 22.59 22.59 0 0 1 2.26 17.15zm-8.39-4.56l6.79 1.82a20.54 20.54 0 0 0-.26-9.46 20.07 20.07 0 0 0-2-4.91 20 20 0 0 0-7.46-7.46 20.2 20.2 0 0 0-9.07-2.7v7a13.45 13.45 0 0 1 2.35.41 13.14 13.14 0 0 1 3.22 1.34 13.24 13.24 0 0 1 4.89 4.89 13.14 13.14 0 0 1 1.33 3.26 13.09 13.09 0 0 1 .24 5.83z"/><path fill="#07579f" d="M505.82 169.57l-5.73-9.92 1-.56a11.36 11.36 0 0 0 2.3-1.77 10.82 10.82 0 0 0 1.77-2.31 11.19 11.19 0 0 0 1.12-2.68l.29-1.08 11.07 3-.29 1.07a22.75 22.75 0 0 1-5.85 10.14 23.18 23.18 0 0 1-4.68 3.59zm-2.71-9.15l3.51 6.08a20.45 20.45 0 0 0 3.28-2.65 20.9 20.9 0 0 0 3.23-4.22 19.78 19.78 0 0 0 1.72-3.85l-6.78-1.78a13.5 13.5 0 0 1-3.13 4.92 12.8 12.8 0 0 1-1.83 1.5z"/><path fill="#fff" d="M503.11 160.42l3.51 6.08a20.45 20.45 0 0 0 3.28-2.65 20.9 20.9 0 0 0 3.23-4.22 19.78 19.78 0 0 0 1.72-3.85l-6.78-1.78a13.5 13.5 0 0 1-3.13 4.92 12.8 12.8 0 0 1-1.83 1.5z"/><path fill="#07579f" d="M473.94 156.37l-.29-1.08a22.61 22.61 0 0 1 0-11.7l.29-1.08 11.07 3-.28 1.08a11.14 11.14 0 0 0 0 5.77l.28 1.07z"/><path fill="#07579f" d="M473.94 156.37l-.29-1.08a22.61 22.61 0 0 1 0-11.7l.29-1.08 11.07 3-.28 1.08a11.14 11.14 0 0 0 0 5.77l.28 1.07z"/><path fill="#fff" d="M475.55 145.25a20.17 20.17 0 0 0 0 8.38l6.78-1.82a13.48 13.48 0 0 1 0-4.74z"/><path fill="#07579f" d="M495.49 172.05a22.64 22.64 0 0 1-11.31-3 22.5 22.5 0 0 1-8.27-8.28 22.58 22.58 0 0 1-2.26-5.45l-.29-1.07 11.08-3 .29 1.08a11.11 11.11 0 0 0 5.19 6.76 11.17 11.17 0 0 0 11.14 0l1-.56 5.73 9.93-1 .56a22.57 22.57 0 0 1-11.3 3zm-19.37-16.27a20.12 20.12 0 0 0 1.72 3.85 20.37 20.37 0 0 0 22.92 9.5 20.32 20.32 0 0 0 3.93-1.51l-3.51-6.08a13.88 13.88 0 0 1-2.23.82 13.53 13.53 0 0 1-6.92 0 14 14 0 0 1-3.23-1.36 13.35 13.35 0 0 1-2.77-2.13 13.26 13.26 0 0 1-3.12-4.92z"/></g><g opacity=".05"><path fill="#7ed1ff" d="M315.76 71.71l-4.19 2-4.48-2.08a2.36 2.36 0 0 0-3.26 2.8l1.31 4.43h12.61l1.25-4.35a2.36 2.36 0 0 0-3.24-2.8z"/><path fill="#3cb0fd" d="M315.76 71.71l-1.36.65a2.31 2.31 0 0 1 .44 2.15l-1.29 4.36h4.2l1.25-4.36a2.36 2.36 0 0 0-3.24-2.8z"/><path fill="#7ed1ff" d="M330.75 108.55c0 10.82-8.78 13.09-19.6 13.09s-19.6-2.27-19.6-13.09 8.78-23.46 19.6-23.46 19.6 12.63 19.6 23.46z"/><path fill="#3cb0fd" d="M311.15 85.09a14.24 14.24 0 0 0-4.21.65c8.81 2.69 15.4 13.43 15.4 22.81s-6.59 12.33-15.4 13c1.36.1 2.77.14 4.21.14 10.82 0 19.6-2.27 19.6-13.09s-8.75-23.51-19.6-23.51z"/><path fill="#07579f" d="M311.15 122.72c-9.63 0-20.68-1.61-20.68-14.17a27.69 27.69 0 0 1 6-16.46c4.1-5.21 9.32-8.09 14.71-8.09s10.61 2.88 14.71 8.09a27.69 27.69 0 0 1 6 16.46c-.06 12.56-11.11 14.17-20.74 14.17zm0-36.55c-10.26 0-18.51 12.24-18.51 22.38 0 8.41 5.53 12 18.51 12s18.51-3.59 18.51-12c0-10.14-8.26-22.38-18.51-22.38z"/><path fill="#07579f" d="M317 85.67h-11.72a3.44 3.44 0 0 1-3.43-3.43v-.73a3.44 3.44 0 0 1 3.43-3.43H317a3.43 3.43 0 0 1 3.43 3.43v.73a3.43 3.43 0 0 1-3.43 3.43zm-11.73-5.42a1.26 1.26 0 0 0-1.27 1.26v.73a1.26 1.26 0 0 0 1.26 1.26H317a1.26 1.26 0 0 0 1.27-1.26v-.73a1.26 1.26 0 0 0-1.27-1.26z"/><rect width="18.59" height="7.59" x="301.85" y="78.08" fill="#07579f" rx="3.43" ry="3.43"/><rect width="14.26" height="3.25" x="304.02" y="80.25" fill="#fff" rx="1.26" ry="1.26"/><path fill="#07579f" d="M317.75 80h-12.61a1.09 1.09 0 0 1-1-.78l-1.31-4.43a3.45 3.45 0 0 1 4.76-4.1l4 1.87 3.73-1.78a3.44 3.44 0 0 1 4.79 4.08l-1.29 4.36a1.07 1.07 0 0 1-1.07.78zM306 77.79h11l1-3.59a1.24 1.24 0 0 0-.4-1.33 1.25 1.25 0 0 0-1.37-.18l-4.2 2a1.06 1.06 0 0 1-.92 0l-4.48-2.08a1.24 1.24 0 0 0-1.37.19 1.26 1.26 0 0 0-.39 1.33zm9.81-6.08z"/><path fill="#fff" d="M314.38 101.39a3.88 3.88 0 0 0-3.11-1.4c-1.53 0-2.93.45-2.93 1.74s1.45 1.43 3 1.62c2.69.33 5.57.81 5.57 4.05 0 2.49-2.08 3.89-4.37 4.06v1.84h-2.34v-1.75a5.52 5.52 0 0 1-4.85-3.15l2.18-.92c.5 1.18 2.14 1.93 3.67 1.93s3.18-.57 3.18-2c0-1.21-1.53-1.66-3.24-1.86-2.64-.29-5.22-.76-5.22-3.81 0-2.42 2.14-3.52 4.28-3.78v-1.62h2.34V98a4.63 4.63 0 0 1 3.83 2.52z"/></g><g opacity=".05"><path fill="#fff" d="M904.74 68.4h27.37v47.48h-27.37z"/><path fill="#7ed1ff" d="M933.24 75.24V68.4a1.13 1.13 0 0 0-1.13-1.13h-27.37a1.14 1.14 0 0 0-1.13 1.13v6.84zM903.61 108.84v7a1.14 1.14 0 0 0 1.13 1.14h27.37a1.13 1.13 0 0 0 1.13-1.14v-7z"/><path fill="#07579f" d="M932.11 118.15h-27.37a2.26 2.26 0 0 1-2.26-2.26V68.4a2.26 2.26 0 0 1 2.26-2.26h27.37a2.26 2.26 0 0 1 2.26 2.26v47.48a2.27 2.27 0 0 1-2.26 2.27zm0-49.75h-27.37v47.49h27.37V68.4z"/><path fill="#07579f" d="M934.37 76.37h-31.89v-8a2.26 2.26 0 0 1 2.26-2.26h27.37a2.26 2.26 0 0 1 2.26 2.26zm-29.63-2.26h27.37V68.4h-27.37zM932.11 118.15h-27.37a2.26 2.26 0 0 1-2.26-2.26v-8.18h31.89v8.17a2.27 2.27 0 0 1-2.26 2.27zM904.74 110v5.92h27.37V110z"/><path fill="#1a92ed" d="M920 114.44a2.27 2.27 0 0 0-3.21-3.2 2.27 2.27 0 0 0 3.21 3.2zM908.52 79.22h4.21v3.04h-4.21z"/><path fill="#1a92ed" d="M908.52 79.22h4.21v3.04h-4.21z"/><path fill="#fff" d="M942 64.45c-9.07-5.84-18.73 3.81-12.89 12.89a5.17 5.17 0 0 0 1.51 1.51c9.12 5.84 18.77-3.85 12.93-12.85a5.06 5.06 0 0 0-1.55-1.55z"/><ellipse cx="936.35" cy="71.65" fill="#1a92ed" rx="7.07" ry="4.31" transform="rotate(-45 936.35757116 71.6479948)"/><path fill="#fff" d="M935.52 74.61l-.76.76-3.09-3.09 1.73-1.72 1.37 1.37 4.54-4.54 1.72 1.72-5.51 5.5z"/></g><g fill="#fff" opacity=".33"><path d="M816.06 72a1.49 1.49 0 0 1-.36 0 1 1 0 0 1-.84-.89l-1.17-21.28a1 1 0 0 1 .71-.94l33.89-12.55a1.4 1.4 0 0 1 1.45.28.83.83 0 0 1 0 1.21L817 71.63a1.31 1.31 0 0 1-.94.37zm.08-21.65l1 18 27.66-28.6z"/><path d="M815.25 57.11h-.11l-8.57-.63a1.18 1.18 0 0 1-1-.67.87.87 0 0 1 .36-1l8.18-5.81a1.47 1.47 0 0 1 1.26-.16 1 1 0 0 1 .73.86l.35 6.4a.89.89 0 0 1-.37.75 1.37 1.37 0 0 1-.83.26zm-5.63-2.37l4.36.32-.18-3.26z"/><path d="M806.68 56.49a1.39 1.39 0 0 1-.69-.18.89.89 0 0 1-.44-1.15l4.28-9.23a1.19 1.19 0 0 1 .79-.59l37.83-9.1a1.28 1.28 0 0 1 1.47.59.92.92 0 0 1-.63 1.24l-33.73 12.49-8.09 5.69a1.44 1.44 0 0 1-.79.24zm5.2-9.41l-2.39 5.16 4.62-3.24a1.32 1.32 0 0 1 .29-.15l18.25-6.76z"/><path d="M811 47.26a1.29 1.29 0 0 1-.64-.16L794.49 39a.89.89 0 0 1-.51-1.09 1.19 1.19 0 0 1 1.13-.71l53.66-1a1.17 1.17 0 0 1 1.23.8 1 1 0 0 1-.85 1.09l-37.83 9.11a2.09 2.09 0 0 1-.32.06zm-11.8-8.21l12 6.16 28.66-6.89z"/></g></g><path fill="#595959" d="M71.5 201.5c0-37.09 56.5-136.84 88.5-119.06 13.3 7.4 24.89 29.53 36.95 47.14 29.68 43.37 64 60.39 97.22 48.28 39.33-14.31 77.26-68.07 116.71-61.71 41.8 6.75 79.57 80.51 121.45 82.81 48.39 2.66 95.33-90.62 142.78-65.18 18.11 9.71 35.12 36.52 53.59 36 16.64-.44 32.31-23 48.61-33.59C816.94 110.53 899 170 929 202" opacity=".05"/></g></svg>