<svg xmlns="http://www.w3.org/2000/svg" xmlns:xlink="http://www.w3.org/1999/xlink" width="56" height="34"><defs><path id="a" d="M978.401 295.43h-8.809v2.643h-29.068a.881.881 0 0 0-.882.88v1.762c0 .486.395.88.882.88h37.877z"/><path id="b" d="M978.401 295.43h-8.809v2.643h-29.068a.881.881 0 0 0-.882.88v1.762c0 .486.395.88.882.88h37.877v-6.165z"/><path id="c" d="M970.474 276.931h-32.592a.882.882 0 0 0-.882.881v19.38c0 .486.395.88.882.88h32.592a.881.881 0 0 0 .88-.88v-19.38a.882.882 0 0 0-.88-.88z"/><path id="d" d="M968.712 296.31h-29.068a.88.88 0 1 1 0-1.761h29.068a.881.881 0 0 1 0 1.762z"/><path id="e" d="M968.712 280.455h-29.068a.88.88 0 1 1 0-1.762h29.068a.882.882 0 0 1 0 1.762z"/><path id="f" d="M981.596 281.335h-7.6a.88.88 0 0 0-.88.881v13.213a.88.88 0 0 0 .88.881h3.965v4.404h9.25v-6.292a8.79 8.79 0 0 0-.588-3.162l-3.382-8.796a1.763 1.763 0 0 0-1.645-1.129z"/><path id="g" d="M977.96 300.71v-4.4h9.25v4.4z"/><path id="h" d="M947.13 297.118a4.038 4.038 0 1 1-.001 8.076 4.038 4.038 0 0 1 .002-8.076z"/><path id="i" d="M947.13 306a4.85 4.85 0 0 1-4.844-4.845 4.85 4.85 0 0 1 4.845-4.845 4.85 4.85 0 0 1 4.845 4.845A4.851 4.851 0 0 1 947.13 306zm0-7.928a3.086 3.086 0 0 0-3.082 3.083c0 1.7 1.383 3.083 3.083 3.083 1.7 0 3.083-1.383 3.083-3.083a3.086 3.086 0 0 0-3.083-3.083z"/><path id="j" d="M947.13 299.394a1.762 1.762 0 1 1 0 3.524 1.762 1.762 0 0 1 0-3.524z"/><path id="k" d="M977.96 297.118a4.038 4.038 0 1 1 0 8.076 4.038 4.038 0 0 1 0-8.076z"/><path id="l" d="M977.96 306a4.851 4.851 0 0 1-4.844-4.845 4.85 4.85 0 0 1 4.845-4.845 4.85 4.85 0 0 1 4.846 4.845A4.852 4.852 0 0 1 977.96 306zm0-7.928a3.086 3.086 0 0 0-3.082 3.083c0 1.7 1.383 3.083 3.083 3.083a3.086 3.086 0 0 0 3.083-3.083 3.086 3.086 0 0 0-3.083-3.083z"/><path id="m" d="M977.96 299.394a1.762 1.762 0 1 1 .002 3.523 1.762 1.762 0 0 1-.001-3.523z"/><path id="n" d="M986.33 301.596h.881a.882.882 0 0 0 .881-.881v-1.762a.88.88 0 0 0-.88-.88h-.882a.881.881 0 0 0-.882.88v1.762c0 .486.395.88.882.88z"/><path id="o" d="M986.33 294.549h.881v2.643h-.88a.882.882 0 0 1-.883-.881v-.881c0-.487.395-.881.882-.881z"/><path id="p" d="M981.33 283.097h-5.57a.881.881 0 0 0-.882.881v4.404c0 .487.394.882.881.882h8.226a.637.637 0 0 0 .594-.866l-1.604-4.172a1.763 1.763 0 0 0-1.645-1.129z"/></defs><g opacity=".83"><use fill="#625d6b" opacity=".83" transform="translate(-935 -274)" xlink:href="#a"/><use fill="#fff" fill-opacity="0" stroke="#7f7f7f" stroke-miterlimit="50" stroke-width=".25" opacity=".83" transform="translate(-935 -274)" xlink:href="#b"/></g><g opacity=".83"><use fill="#dbdadd" opacity=".83" transform="translate(-935 -274)" xlink:href="#c"/><use fill="#fff" fill-opacity="0" stroke="#7f7f7f" stroke-miterlimit="50" stroke-width=".25" opacity=".83" transform="translate(-935 -274)" xlink:href="#c"/></g><g opacity=".83"><use fill="#c9c8cc" opacity=".83" transform="translate(-935 -274)" xlink:href="#d"/><use fill="#fff" fill-opacity="0" stroke="#7f7f7f" stroke-miterlimit="50" stroke-width=".25" opacity=".83" transform="translate(-935 -274)" xlink:href="#d"/><use fill="#c9c8cc" opacity=".83" transform="translate(-935 -274)" xlink:href="#e"/><use fill="#fff" fill-opacity="0" stroke="#7f7f7f" stroke-miterlimit="50" stroke-width=".25" opacity=".83" transform="translate(-935 -274)" xlink:href="#e"/></g><g opacity=".83"><use fill="#bcdfee" opacity=".83" transform="translate(-935 -274)" xlink:href="#f"/><use fill="#fff" fill-opacity="0" stroke="#7f7f7f" stroke-miterlimit="50" stroke-width=".25" opacity=".83" transform="translate(-935 -274)" xlink:href="#f"/></g><g opacity=".83" transform="translate(-935 -274)"><use fill="#bcdfee" xlink:href="#g"/><use fill="#fff" fill-opacity="0" stroke="#7f7f7f" stroke-miterlimit="50" stroke-width=".25" xlink:href="#g"/></g><g opacity=".83"><use fill="#ececed" opacity=".83" transform="translate(-935 -274)" xlink:href="#h"/><use fill="#fff" fill-opacity="0" stroke="#7f7f7f" stroke-miterlimit="50" stroke-width=".25" opacity=".83" transform="translate(-935 -274)" xlink:href="#h"/></g><g opacity=".83"><use fill="#504b5a" opacity=".83" transform="translate(-935 -274)" xlink:href="#i"/><use fill="#fff" fill-opacity="0" stroke="#7f7f7f" stroke-miterlimit="50" stroke-width=".25" opacity=".83" transform="translate(-935 -274)" xlink:href="#i"/></g><g opacity=".83"><use fill="#dbdadd" opacity=".83" transform="translate(-935 -274)" xlink:href="#j"/><use fill="#fff" fill-opacity="0" stroke="#7f7f7f" stroke-miterlimit="50" stroke-width=".25" opacity=".83" transform="translate(-935 -274)" xlink:href="#j"/></g><g opacity=".83"><use fill="#ececed" opacity=".83" transform="translate(-935 -274)" xlink:href="#k"/><use fill="#fff" fill-opacity="0" stroke="#7f7f7f" stroke-miterlimit="50" stroke-width=".25" opacity=".83" transform="translate(-935 -274)" xlink:href="#k"/></g><g opacity=".83"><use fill="#504b5a" opacity=".83" transform="translate(-935 -274)" xlink:href="#l"/><use fill="#fff" fill-opacity="0" stroke="#7f7f7f" stroke-miterlimit="50" stroke-width=".25" opacity=".83" transform="translate(-935 -274)" xlink:href="#l"/></g><g opacity=".83"><use fill="#dbdadd" opacity=".83" transform="translate(-935 -274)" xlink:href="#m"/><use fill="#fff" fill-opacity="0" stroke="#7f7f7f" stroke-miterlimit="50" stroke-width=".25" opacity=".83" transform="translate(-935 -274)" xlink:href="#m"/></g><g opacity=".83"><use fill="#625d6b" opacity=".83" transform="translate(-935 -274)" xlink:href="#n"/><use fill="#fff" fill-opacity="0" stroke="#7f7f7f" stroke-miterlimit="50" stroke-width=".25" opacity=".83" transform="translate(-935 -274)" xlink:href="#n"/></g><g opacity=".83"><use fill="#ececed" opacity=".83" transform="translate(-935 -274)" xlink:href="#o"/><use fill="#fff" fill-opacity="0" stroke="#7f7f7f" stroke-miterlimit="50" stroke-width=".25" opacity=".83" transform="translate(-935 -274)" xlink:href="#o"/></g><g opacity=".83"><use fill="#625d6b" opacity=".83" transform="translate(-935 -274)" xlink:href="#p"/><use fill="#fff" fill-opacity="0" stroke="#7f7f7f" stroke-miterlimit="50" stroke-width=".25" opacity=".83" transform="translate(-935 -274)" xlink:href="#p"/></g></svg>