<svg xmlns="http://www.w3.org/2000/svg" xmlns:xlink="http://www.w3.org/1999/xlink" width="47" height="34"><defs><path id="a" d="M780.394 306.035h-41.787a2.606 2.606 0 0 1-2.607-2.607v-28.821a2.606 2.606 0 0 1 2.607-2.607h41.787a2.607 2.607 0 0 1 2.606 2.607v28.82a2.607 2.607 0 0 1-2.606 2.608z"/><path id="b" d="M748.155 294.69h-7.293a.81.81 0 1 0 0 1.62h7.293a.81.81 0 1 0 0-1.62z"/><path id="c" d="M759.5 295.5a.81.81 0 0 0-.811-.811h-7.293a.81.81 0 0 0 0 1.622h7.293a.81.81 0 0 0 .811-.811z"/><path id="d" d="M741.673 298.741h-.811a.81.81 0 0 0 0 1.621h.81a.81.81 0 0 0 0-1.62z"/><path id="e" d="M746.534 298.741h-1.62a.81.81 0 1 0 0 1.621h1.62a.81.81 0 1 0 0-1.62z"/><path id="f" d="M750.586 298.741h-.811a.81.81 0 0 0 0 1.621h.81a.81.81 0 1 0 0-1.62z"/><path id="g" d="M755.448 298.741h-1.62a.81.81 0 0 0 0 1.621h1.62a.81.81 0 1 0 0-1.62z"/><path id="h" d="M758.114 298.977a.85.85 0 0 0-.235.575c0 .21.09.422.235.575a.85.85 0 0 0 .575.236c.211 0 .421-.09.575-.236a.845.845 0 0 0 .236-.575.846.846 0 0 0-.236-.575c-.307-.3-.86-.3-1.15 0z"/><path id="i" d="M773.275 297.12a4.862 4.862 0 1 1-9.724 0 4.862 4.862 0 0 1 9.724 0z"/><path id="j" d="M778.948 297.12a4.862 4.862 0 1 1-9.723.001 4.862 4.862 0 0 1 9.723 0z"/><path id="k" d="M752.81 288.207h-10.93c-.56 0-1.016-.456-1.016-1.017v-7.691c0-.561.456-1.016 1.016-1.016h10.932c.562 0 1.017.455 1.017 1.016v7.691c0 .561-.455 1.017-1.017 1.017z"/><path id="l" d="M752.81 289.017h-10.93a1.83 1.83 0 0 1-1.827-1.827v-7.69a1.83 1.83 0 0 1 1.827-1.828h10.932c1.006 0 1.827.821 1.827 1.828v7.69a1.83 1.83 0 0 1-1.827 1.827zm-10.931-9.724a.205.205 0 0 0-.206.207v7.69c0 .114.09.207.206.207h10.932a.207.207 0 0 0 .207-.207v-7.69a.207.207 0 0 0-.207-.207z"/><path id="m" d="M753.827 279.5c0-.562-.455-1.017-1.017-1.017h-6.069c-.562 0-1.017.455-1.017 1.017v7.69c0 .562.455 1.018 1.017 1.018h1.207c.562 0 1.018-.457 1.018-1.019v-4.448c0-.561.455-1.016 1.016-1.016h2.828c.562 0 1.017-.456 1.017-1.017z"/><path id="n" d="M747.948 289.017h-1.207a1.829 1.829 0 0 1-1.827-1.827v-7.69a1.83 1.83 0 0 1 1.827-1.828h6.07a1.83 1.83 0 0 1 1.826 1.828v1.207a1.83 1.83 0 0 1-1.827 1.828h-2.828a.206.206 0 0 0-.207.206v4.449a1.829 1.829 0 0 1-1.827 1.827zm-1.207-9.724a.206.206 0 0 0-.207.207v7.69c0 .114.092.207.207.207h1.207a.207.207 0 0 0 .207-.207v-4.449a1.83 1.83 0 0 1 1.827-1.827h2.828a.207.207 0 0 0 .207-.207V279.5a.206.206 0 0 0-.207-.207z"/><path id="o" d="M753.827 285.776h-4.86a.81.81 0 1 1 0-1.621h4.86a.81.81 0 1 1 0 1.62z"/><path id="p" d="M745.725 282.535h-4.862a.81.81 0 1 1 0-1.621h4.862a.81.81 0 0 1 0 1.62z"/><path id="q" d="M745.725 285.776h-4.862a.81.81 0 1 1 0-1.621h4.862a.81.81 0 0 1 0 1.62z"/></defs><use fill="#cbb275" transform="translate(-736 -272)" xlink:href="#a"/><use fill="#7a693c" transform="translate(-736 -272)" xlink:href="#b"/><use fill="#7a693c" transform="translate(-736 -272)" xlink:href="#c"/><use fill="#7a693c" transform="translate(-736 -272)" xlink:href="#d"/><use fill="#7a693c" transform="translate(-736 -272)" xlink:href="#e"/><use fill="#7a693c" transform="translate(-736 -272)" xlink:href="#f"/><use fill="#7a693c" transform="translate(-736 -272)" xlink:href="#g"/><use fill="#7a693c" transform="translate(-736 -272)" xlink:href="#h"/><use fill="#e64c3d" transform="translate(-736 -272)" xlink:href="#i"/><use fill="#efc31b" transform="translate(-736 -272)" xlink:href="#j"/><use fill="#efc31b" transform="translate(-736 -272)" xlink:href="#k"/><use fill="#f2d45c" transform="translate(-736 -272)" xlink:href="#l"/><use fill="#efc31b" transform="translate(-736 -272)" xlink:href="#m"/><use fill="#f2d45c" transform="translate(-736 -272)" xlink:href="#n"/><use fill="#f2d45c" transform="translate(-736 -272)" xlink:href="#o"/><use fill="#f2d45c" transform="translate(-736 -272)" xlink:href="#p"/><use fill="#f2d45c" transform="translate(-736 -272)" xlink:href="#q"/></svg>