<svg xmlns="http://www.w3.org/2000/svg" viewBox="0 0 50 50"><path d="M26.429688 2C13.598493 2 3.1455205 12.395253 3.0058594 25.216797V25.261719C3.1457871 37.819141 13.384083 48 25.951172 48c7.718516 0 14.247976-2.313196 19.585937-8.71875a2.0010761 2.0010761 0 1 0-3.074218-2.5625C37.800852 42.313196 32.944656 44 25.951172 44 15.543611 44 7.1355061 35.644614 7.0078125 25.238281 7.1368191 14.568988 15.758891 6 26.429688 6c4.336515 0 8.531456 1.4738481 11.578124 4.0625C41.054482 12.651152 43 16.281511 43 20.988281V21.375c0 3.385417-1.593602 6.600336-3.783203 8.949219C37.027196 32.673101 34.222875 34 32.566406 34c-.367292 0-.351937-.045564-.380859-.078125C32.156624 33.889314 32 33.671 32 33v-.050781l-.001953-.050781s-.136186-2.343056 1.207031-5.605469c.001649-.004004.002253-.007712.003906-.011719l4.644532-11.533203a2.0002 2.0002 0 0 0-1.908204-2.773438 2.0002 2.0002 0 0 0-1.800781 1.277344l-.257812.642578c-.367591-.440022-.774458-.833978-1.22461-1.171875C30.964317 12.448246 28.873016 12 26.712891 12c-2.894782 0-6.061842 1.644879-8.830079 4.492188-2.768235 2.847307-4.988281 7.068495-4.988281 12.316406 0 5.05055 4.129427 9.191406 9.175781 9.191406 2.779247 0 4.949507-1.179077 6.417969-2.580078.181145.415007.399316.811774.707031 1.158203C30.054688 37.545562 31.354698 38 32.566406 38c3.402532 0 6.813523-1.985601 9.576172-4.949219C44.905227 30.087164 47 25.989583 47 21.375v-.386719c0-5.844229-2.556013-10.706511-6.402344-13.9746091C36.751325 3.7455738 31.663172 2 26.429688 2zm.283203 14c1.611874 0 2.75737.327785 3.548828.921875.720807.541059 1.285476 1.393425 1.630859 2.919922l-2.380859 5.914062-1.347657 3.34375a2.0002 2.0002 0 0 0-.005859.009766c-.702602 1.126491-1.392758 2.388181-2.326172 3.324219C24.898618 33.369631 23.878846 34 22.070312 34c-2.879645 0-5.175781-2.297956-5.175781-5.191406 0-4.13109 1.706909-7.315403 3.857422-9.527344C22.902467 17.069309 25.644672 16 26.712891 16z"/></svg>