<svg xmlns="http://www.w3.org/2000/svg" xmlns:xlink="http://www.w3.org/1999/xlink" viewBox="0 0 33.8 56.07"><defs><linearGradient id="a" x1="-349.64" x2="-349.64" y1="288.27" y2="281.51" gradientTransform="rotate(26.17 419.26869717 937.29430814)" gradientUnits="userSpaceOnUse"><stop offset="0" stop-color="#fff" stop-opacity="0"/><stop offset="1" stop-color="#fff"/></linearGradient><linearGradient id="b" x1="-347.52" x2="-347.52" y1="287.93" y2="281.85" xlink:href="#a"/></defs><g data-name="Layer 2"><g data-name="Магазин / виджеты"><path fill="#ef5a24" d="M21.26 47.95v5.44h-8.74V48"/><path fill="#ef5a24" d="M12.52 54.76v-9.85h8.74v10.33"/><path fill="#f5911e" d="M13.94 44.91h5.9v9.61h-5.9z"/><path fill="#f9ae3b" d="M15.22 44.91h3.33v11.16h-3.33z"/><path fill="#002341" d="M6 31.06l-4.8 4.75s-.54-.59-1-.24c-1.49 1.07 6.39 15 6.39 15L5 45.3s.15-5 4.85-5.38zM27.81 31.06l4.79 4.75s.55-.59 1-.24c1.48 1.07-6.39 15-6.39 15l1.56-5.28s-.16-5-4.86-5.38z"/><path fill="#cacaca" d="M21.28 44.91h-8.76l-.77-2.36h10.31l-.78 2.36z"/><path fill="#e4e4e4" d="M22.85 42.79c3.6-3.95 6-11.37 6-19.89C28.89 10.25 22 0 16.9 0s-12 10.25-12 22.9c0 8.52 2.43 15.94 6 19.89z"/><path fill="#002341" d="M22.86 3.85C20.92 1.42 18.78 0 16.9 0s-4 1.42-6 3.85c0 0-1 .77 6 .77s5.96-.77 5.96-.77zM5 20.22c0 .88-.08 1.78-.08 2.68 0 1.23 0 2.43.15 3.61 0 0 .21 1.18 11.83 1.18s11.83-1.18 11.83-1.18c.1-1.18.16-2.38.16-3.61 0-.91 0-1.8-.11-2.68 0 0 .09 1.17-11.88 1.17S5 20.22 5 20.22zM17.88 40.08a56.91 56.91 0 0 1-1 10.47 56.91 56.91 0 0 1-1-10.47c0-5.78.44-10.47 1-10.47s1 4.69 1 10.47zM21.44 12.66a4.54 4.54 0 1 1-4.54-4.54 4.54 4.54 0 0 1 4.54 4.54z"/><path fill="#b1b1b1" d="M19.94 14.15a3.38 3.38 0 1 1-1.55-4.52 3.38 3.38 0 0 1 1.55 4.52z"/><path fill="url(#a)" d="M18.7 9.8a3.07 3.07 0 0 0-.31-.17l-.29-.13-3 6a1.43 1.43 0 0 0 .27.15 2.33 2.33 0 0 0 .33.14z"/><path fill="url(#b)" d="M19.55 10.57L16.87 16a3.42 3.42 0 0 0 1.74-.45l1.64-3.35a3.36 3.36 0 0 0-.7-1.63z"/></g></g></svg>