<svg xmlns="http://www.w3.org/2000/svg" xmlns:xlink="http://www.w3.org/1999/xlink" width="12" height="11"><defs><path id="a" d="M440.864 267.41a1.186 1.186 0 1 1 0 2.372 1.186 1.186 0 0 1 0-2.371z"/><path id="b" d="M447.135 267.41a1.186 1.186 0 1 1 0 2.372 1.186 1.186 0 0 1 0-2.371z"/><path id="c" d="M449.977 276.769a6.127 6.127 0 0 0-5.977-4.042 6.127 6.127 0 0 0-5.977 4.042.546.546 0 0 0 1.046.315c.041-.133 1.048-3.265 4.931-3.265 3.91 0 4.921 3.23 4.931 3.262a.547.547 0 1 0 1.046-.312z"/></defs><g><use fill="#f47d7d" transform="translate(-438 -267)" xlink:href="#a"/><use fill="#f47d7d" transform="translate(-438 -267)" xlink:href="#b"/><use fill="#f47d7d" transform="translate(-438 -267)" xlink:href="#c"/></g></svg>