<svg xmlns="http://www.w3.org/2000/svg" xmlns:xlink="http://www.w3.org/1999/xlink" width="29" height="40"><defs><path id="a" d="M1117.63 229.467c-1.033 13.043-13.366 7.863-6.675-2.013 2.118.726 3.988 1.187 6.674 2.013zm4.336-13.994c.307 2.192-1.546 10.648-3.8 12.241-2.22-.56-4.402-1.109-6.604-1.605-.569-.303-.389-.204-.919-1.796-.579-2.257-.865-6.024-.374-8.707.896-4.88 2.8-7.709 5.374-8.38 5.494-.806 6.184 4.331 6.323 8.247zm-16.956-.3c-.529 1.591-.349 1.493-.918 1.795-2.203.497-4.382 1.046-6.603 1.606-2.256-1.593-4.109-10.05-3.802-12.242.14-3.916.83-9.053 6.323-8.248 2.576.672 4.48 3.501 5.374 8.381.492 2.683.205 6.45-.374 8.708zm-6.986 5.154c2.687-.826 4.557-1.288 6.675-2.013 6.69 9.876-5.643 15.055-6.675 2.013z"/></defs><use fill="#474747" transform="translate(-1093 -198)" xlink:href="#a"/></svg>