<svg xmlns="http://www.w3.org/2000/svg" xmlns:xlink="http://www.w3.org/1999/xlink" width="205" height="128"><defs><path id="a" d="M1178.688 180.661a6.312 6.312 0 0 1 6.312 6.312V266.6a6.312 6.312 0 0 1-6.312 6.313h-112.98a3.182 3.182 0 0 1-3.181-3.18v-82.76a6.313 6.313 0 0 1 6.313-6.312zm-10.955 3.182c-1.162.697-2.104 1.64-2.104 2.801 0 1.162.942 2.105 2.104 1.97h2.105c1.162.135 2.104-.808 2.104-1.97s-.942-2.104-2.104-2.8zm-58.915 0c-1.162.697-2.104 1.64-2.104 2.801 0 1.162.942 2.105 2.104 1.97h50.499c1.162.135 2.104-.808 2.104-1.97s-.942-2.104-2.104-2.8zm-10.52 0c-1.162.697-2.105 1.64-2.105 2.801 0 1.162.943 2.105 2.105 1.97h2.103c1.163.135 2.105-.808 2.105-1.97s-.942-2.104-2.105-2.8zm-8.417 0c-1.162.697-2.104 1.64-2.104 2.801 0 1.162.942 2.105 2.104 1.97h2.104c1.163.135 2.105-.808 2.105-1.97s-.942-2.104-2.105-2.8zm-8.416.697a2.105 2.105 0 1 0 0 4.21 2.105 2.105 0 0 0 0-4.21zm-6.313 0a2.104 2.104 0 1 0 0 4.208 2.104 2.104 0 0 0 0-4.208zm-6.312 0a2.105 2.105 0 1 0 0 4.21 2.105 2.105 0 0 0 0-4.21zm111.389 10.95a2.106 2.106 0 0 0-2.105-2.105h-108.721a2.105 2.105 0 0 0-2.104 2.105v72.138c0 1.162.942 2.104 2.104 2.104h108.72a2.105 2.105 0 0 0 2.106-2.104zm-1.975-6.876c1.162.135 2.104-.808 2.104-1.97s-.942-2.104-2.104-2.8h-2.104c-1.163.696-2.104 1.638-2.104 2.8s.94 2.105 2.104 1.97z"/><path id="b" d="M1178.688 180.661h-109.849a6.312 6.312 0 0 0-6.311 6.312v82.76a3.181 3.181 0 0 0 3.18 3.18h112.98a6.312 6.312 0 0 0 6.312-6.312v-79.628a6.312 6.312 0 0 0-6.312-6.312z"/><path id="c" d="M1167.733 183.843h2.104c1.163.697 2.104 1.64 2.104 2.802 0 1.162-.94 2.104-2.104 1.969h-2.104c-1.162.135-2.104-.807-2.104-1.97 0-1.161.942-2.104 2.104-2.801z"/><path id="d" d="M1108.818 183.843h50.5c1.16.697 2.103 1.64 2.103 2.802 0 1.162-.943 2.104-2.104 1.969h-50.499c-1.162.135-2.104-.807-2.104-1.97 0-1.161.942-2.104 2.104-2.801z"/><path id="e" d="M1098.298 183.843h2.104c1.162.697 2.104 1.64 2.104 2.802 0 1.162-.942 2.104-2.104 1.969h-2.104c-1.162.135-2.104-.807-2.104-1.97 0-1.161.942-2.104 2.104-2.801z"/><path id="f" d="M1089.88 183.843h2.105c1.163.697 2.105 1.64 2.105 2.802 0 1.162-.942 2.104-2.105 1.969h-2.104c-1.162.135-2.104-.807-2.104-1.97 0-1.161.942-2.104 2.104-2.801z"/><path id="g" d="M1081.465 184.54a2.104 2.104 0 1 1 0 4.208 2.104 2.104 0 0 1 0-4.208z"/><path id="h" d="M1075.152 184.54a2.104 2.104 0 1 1 0 4.208 2.104 2.104 0 0 1 0-4.208z"/><path id="i" d="M1068.84 184.54a2.104 2.104 0 1 1 0 4.208 2.104 2.104 0 0 1 0-4.208z"/><path id="j" d="M1180.228 206.11v61.518a2.104 2.104 0 0 1-2.104 2.104h-108.72a2.105 2.105 0 0 1-2.106-2.104V195.49c0-1.162.943-2.105 2.105-2.105h108.721c1.162 0 2.104.943 2.104 2.105v10.62z"/><path id="k" d="M1178.254 188.614h-2.104c-1.162.134-2.104-.808-2.104-1.97s.942-2.104 2.104-2.8h2.104c1.162.696 2.104 1.638 2.104 2.8s-.942 2.104-2.104 1.97z"/><path id="l" d="M1069.403 269.732a2.104 2.104 0 0 1-2.104-2.104V206.11h112.93v61.518a2.104 2.104 0 0 1-2.105 2.104zm86.967-37.096c0 1.162.942 2.104 2.105 2.104h13.287a2.104 2.104 0 0 0 2.104-2.104v-19.65a2.104 2.104 0 0 0-2.104-2.104h-13.287a2.104 2.104 0 0 0-2.105 2.104zm-22.268 0c0 1.162.943 2.104 2.105 2.104h13.287a2.105 2.105 0 0 0 2.105-2.104v-19.65a2.105 2.105 0 0 0-2.105-2.104h-13.287a2.105 2.105 0 0 0-2.105 2.104zm0 27.04c0 1.162.943 2.103 2.105 2.103h35.555a2.103 2.103 0 0 0 2.104-2.103v-16.47a2.104 2.104 0 0 0-2.104-2.103h-35.567c-1.155 0-2.093.925-2.093 2.067zm-23.858-27.04c0 1.162.942 2.104 2.105 2.104h13.287a2.104 2.104 0 0 0 2.104-2.104v-19.65a2.104 2.104 0 0 0-2.104-2.104h-13.287a2.104 2.104 0 0 0-2.105 2.104zm-36.583 0c0 1.162.942 2.104 2.105 2.104h27.602a2.105 2.105 0 0 0 2.105-2.104v-19.65a2.105 2.105 0 0 0-2.105-2.104h-27.602a2.104 2.104 0 0 0-2.105 2.104zm0 10.534v16.506c0 1.162.942 2.103 2.105 2.103h49.87a2.103 2.103 0 0 0 2.104-2.103v-16.47a2.104 2.104 0 0 0-2.104-2.103h-49.895a2.073 2.073 0 0 0-2.079 2.067z"/><path id="m" d="M1180.228 207.11v-1h-1"/><path id="n" d="M1178.238 206.11h-109.443"/><path id="o" d="M1068.299 206.11h-1v1"/><path id="p" d="M1067.299 208.116v59.512c0 1.162.942 2.104 2.104 2.104h108.72a2.105 2.105 0 0 0 2.106-2.104v-60.015"/><path id="q" d="M1156.37 215.22v-2.233c0-1.163.942-2.105 2.104-2.105h13.288c1.162 0 2.104.942 2.104 2.105v19.649a2.105 2.105 0 0 1-2.104 2.105h-13.288a2.105 2.105 0 0 1-2.104-2.105V215.22z"/><path id="r" d="M1134.102 215.22v-2.233c0-1.163.942-2.105 2.104-2.105h13.289c1.162 0 2.104.942 2.104 2.105v19.649a2.105 2.105 0 0 1-2.104 2.105h-13.288a2.105 2.105 0 0 1-2.105-2.105V215.22z"/><path id="s" d="M1134.102 244.17v-1c0-.348.087-.676.24-.963"/><path id="t" d="M1135.008 241.468c.338-.23.747-.365 1.187-.365h35.567c1.162 0 2.104.942 2.104 2.104v16.469a2.104 2.104 0 0 1-2.104 2.104h-35.555a2.104 2.104 0 0 1-2.104-2.104v-15.01"/><path id="u" d="M1110.244 215.22v-2.233c0-1.163.942-2.105 2.104-2.105h13.288c1.162 0 2.104.942 2.104 2.105v19.649a2.105 2.105 0 0 1-2.104 2.105h-13.288a2.105 2.105 0 0 1-2.104-2.105V215.22z"/><path id="v" d="M1073.661 215.22v-2.233c0-1.163.942-2.105 2.104-2.105h27.603c1.162 0 2.105.942 2.105 2.105v19.649a2.106 2.106 0 0 1-2.105 2.105h-27.603a2.105 2.105 0 0 1-2.104-2.105V215.22z"/><path id="w" d="M1073.661 244.17v-1h.001c0-.348.086-.676.238-.963"/><path id="x" d="M1074.556 241.47a2.084 2.084 0 0 1 1.187-.367h49.893c1.162 0 2.105.942 2.105 2.104v16.469a2.105 2.105 0 0 1-2.105 2.104h-49.87a2.105 2.105 0 0 1-2.105-2.104v-15.012"/><path id="y" d="M1089.88 188.614h2.105c1.163.135 2.105-.808 2.105-1.97s-.942-2.104-2.105-2.8h-2.104c-1.162.696-2.104 1.638-2.104 2.8s.942 2.105 2.104 1.97z"/><path id="z" d="M1089.88 188.614h2.105c1.163.134 2.105-.808 2.105-1.97s-.942-2.104-2.105-2.8h-2.104c-1.162.696-2.104 1.638-2.104 2.8s.942 2.104 2.104 1.97z"/><path id="A" d="M1098.298 188.614h2.104c1.162.135 2.104-.808 2.104-1.97s-.942-2.104-2.104-2.8h-2.104c-1.162.696-2.104 1.638-2.104 2.8s.942 2.105 2.104 1.97z"/><path id="B" d="M1098.298 188.614h2.104c1.162.134 2.104-.808 2.104-1.97s-.942-2.104-2.104-2.8h-2.104c-1.162.696-2.104 1.638-2.104 2.8s.942 2.104 2.104 1.97z"/><path id="C" d="M1167.733 188.614h2.104c1.163.135 2.104-.808 2.104-1.97s-.94-2.104-2.104-2.8h-2.104c-1.162.696-2.104 1.638-2.104 2.8s.942 2.105 2.104 1.97z"/><path id="D" d="M1167.733 188.614h2.104c1.163.134 2.104-.808 2.104-1.97s-.94-2.104-2.104-2.8h-2.104c-1.162.696-2.104 1.638-2.104 2.8s.942 2.104 2.104 1.97z"/><path id="E" d="M1178.254 183.843h-2.104c-1.163.697-2.104 1.64-2.104 2.802 0 1.162.94 2.104 2.104 1.969h2.104c1.162.135 2.104-.807 2.104-1.97 0-1.161-.942-2.104-2.104-2.801z"/><path id="F" d="M1178.254 183.843h-2.104c-1.162.697-2.104 1.64-2.104 2.802 0 1.162.942 2.104 2.104 1.969h2.104c1.162.135 2.104-.807 2.104-1.97 0-1.161-.942-2.104-2.104-2.801z"/><path id="G" d="M1108.818 188.614h50.5c1.16.135 2.103-.808 2.103-1.97s-.943-2.104-2.104-2.8h-50.499c-1.162.696-2.104 1.638-2.104 2.8s.942 2.105 2.104 1.97z"/><path id="H" d="M1108.818 188.614h50.5c1.16.134 2.103-.808 2.103-1.97s-.943-2.104-2.104-2.8h-50.499c-1.162.696-2.104 1.638-2.104 2.8s.942 2.104 2.104 1.97z"/><path id="I" d="M1178.124 193.386c1.162 0 2.105.942 2.105 2.104v10.62h-112.93v-10.62c0-1.162.942-2.104 2.104-2.104zm-88.243 7.953c1.162.034 2.104-.907 2.104-2.07 0-1.161-.942-2.104-2.104-2.701h-16.833c-1.162.597-2.104 1.54-2.104 2.702s.942 2.103 2.104 2.069zm16.833 0c1.162.034 2.104-.907 2.104-2.07 0-1.161-.942-2.104-2.104-2.701h-8.416c-1.162.597-2.105 1.54-2.105 2.702s.943 2.103 2.105 2.069zm16.833 0c1.162.034 2.104-.907 2.104-2.07 0-1.161-.942-2.104-2.104-2.701h-8.416c-1.162.597-2.105 1.54-2.105 2.702s.943 2.103 2.105 2.069zm16.833 0c1.162.034 2.104-.907 2.104-2.07 0-1.161-.942-2.104-2.104-2.701h-8.416c-1.162.597-2.105 1.54-2.105 2.702s.943 2.103 2.105 2.069zm16.833 0c1.162.034 2.104-.907 2.104-2.07 0-1.161-.942-2.104-2.104-2.701h-8.417c-1.161.597-2.104 1.54-2.104 2.702s.943 2.103 2.104 2.069zm16.833 0c1.162.034 2.104-.907 2.104-2.07 0-1.161-.942-2.104-2.104-2.701h-8.417c-1.161.597-2.104 1.54-2.104 2.702s.943 2.103 2.104 2.069z"/><path id="J" d="M1178.124 193.386h-108.721a2.104 2.104 0 0 0-2.104 2.104v10.62h112.929v-10.62a2.104 2.104 0 0 0-2.104-2.104z"/><path id="K" d="M1089.88 201.339h-16.832c-1.161.034-2.104-.907-2.104-2.07 0-1.161.943-2.104 2.104-2.702h16.833c1.162.598 2.104 1.54 2.104 2.703 0 1.162-.942 2.103-2.104 2.069z"/><path id="L" d="M1106.714 201.339h-8.416c-1.162.034-2.105-.907-2.105-2.07 0-1.161.943-2.104 2.105-2.702h8.416c1.162.598 2.104 1.54 2.104 2.703 0 1.162-.942 2.103-2.104 2.069z"/><path id="M" d="M1123.547 201.339h-8.416c-1.162.034-2.105-.907-2.105-2.07 0-1.161.943-2.104 2.105-2.702h8.416c1.162.598 2.104 1.54 2.104 2.703 0 1.162-.942 2.103-2.104 2.069z"/><path id="N" d="M1140.38 201.339h-8.416c-1.162.034-2.105-.907-2.105-2.07 0-1.161.943-2.104 2.105-2.702h8.416c1.162.598 2.104 1.54 2.104 2.703 0 1.162-.942 2.103-2.104 2.069z"/><path id="O" d="M1157.213 201.339h-8.416c-1.162.034-2.105-.907-2.105-2.07 0-1.161.943-2.104 2.105-2.702h8.416c1.162.598 2.104 1.54 2.104 2.703 0 1.162-.942 2.103-2.104 2.069z"/><path id="P" d="M1174.046 201.339h-8.417c-1.161.034-2.104-.907-2.104-2.07 0-1.161.943-2.104 2.104-2.702h8.417c1.162.598 2.104 1.54 2.104 2.703 0 1.162-.942 2.103-2.104 2.069z"/><path id="Q" d="M1089.88 196.567h-16.832c-1.162.598-2.104 1.54-2.104 2.702s.942 2.105 2.104 2.07h16.833c1.162.035 2.104-.908 2.104-2.07s-.942-2.104-2.104-2.702z"/><path id="R" d="M1089.88 196.566h-16.832c-1.161.6-2.104 1.541-2.104 2.703s.943 2.104 2.104 2.07h16.833c1.162.034 2.104-.908 2.104-2.07s-.942-2.104-2.104-2.703z"/><path id="S" d="M1106.714 196.567h-8.416c-1.162.598-2.105 1.54-2.105 2.702s.943 2.105 2.105 2.07h8.416c1.162.035 2.104-.908 2.104-2.07s-.942-2.104-2.104-2.702z"/><path id="T" d="M1106.714 196.566h-8.416c-1.162.6-2.105 1.541-2.105 2.703s.943 2.104 2.105 2.07h8.416c1.162.034 2.104-.908 2.104-2.07s-.942-2.104-2.104-2.703z"/><path id="U" d="M1123.547 196.567h-8.416c-1.162.598-2.105 1.54-2.105 2.702s.943 2.105 2.105 2.07h8.416c1.162.035 2.104-.908 2.104-2.07s-.942-2.104-2.104-2.702z"/><path id="V" d="M1123.547 196.566h-8.416c-1.162.6-2.105 1.541-2.105 2.703s.943 2.104 2.105 2.07h8.416c1.162.034 2.104-.908 2.104-2.07s-.942-2.104-2.104-2.703z"/><path id="W" d="M1140.38 196.567h-8.416c-1.162.598-2.105 1.54-2.105 2.702s.943 2.105 2.105 2.07h8.416c1.162.035 2.104-.908 2.104-2.07s-.942-2.104-2.104-2.702z"/><path id="X" d="M1140.38 196.566h-8.416c-1.162.6-2.105 1.541-2.105 2.703s.943 2.104 2.105 2.07h8.416c1.162.034 2.104-.908 2.104-2.07s-.942-2.104-2.104-2.703z"/><path id="Y" d="M1157.213 196.567h-8.417c-1.161.598-2.104 1.54-2.104 2.702s.943 2.105 2.104 2.07h8.417c1.162.035 2.104-.908 2.104-2.07s-.942-2.104-2.104-2.702z"/><path id="Z" d="M1157.213 196.566h-8.416c-1.162.6-2.105 1.541-2.105 2.703s.943 2.104 2.105 2.07h8.416c1.162.034 2.104-.908 2.104-2.07s-.942-2.104-2.104-2.703z"/><path id="aa" d="M1174.046 196.567h-8.417c-1.161.598-2.104 1.54-2.104 2.702s.943 2.105 2.104 2.07h8.417c1.162.035 2.104-.908 2.104-2.07s-.942-2.104-2.104-2.702z"/><path id="ab" d="M1174.046 196.566h-8.417c-1.161.6-2.104 1.541-2.104 2.703s.943 2.104 2.104 2.07h8.417c1.162.034 2.104-.908 2.104-2.07s-.942-2.104-2.104-2.703z"/><path id="ac" d="M988.285 234.74h27.603a2.104 2.104 0 0 0 2.104-2.104v-17.58c0 1.208-.95 2.188-2.12 2.188h-27.57c-1.17 0-2.12-.98-2.12-2.188v17.58c0 1.162.941 2.104 2.103 2.104z"/><path id="ad" d="M988.285 234.74h27.603a2.104 2.104 0 0 0 2.104-2.104v-17.58c0 1.208-.949 2.188-2.12 2.188h-27.57c-1.17 0-2.12-.98-2.12-2.188v17.58c0 1.162.941 2.104 2.103 2.104z"/><path id="ae" d="M1012.144 185.433h13.288a2.103 2.103 0 0 0 2.104-2.104v-17.58c0 1.209-.98 2.188-2.187 2.188h-13.122a2.187 2.187 0 0 1-2.187-2.187v17.579c0 1.163.942 2.104 2.104 2.104z"/><path id="af" d="M1012.144 185.434h13.288a2.104 2.104 0 0 0 2.104-2.104v-17.58a2.188 2.188 0 0 1-2.187 2.188h-13.122a2.188 2.188 0 0 1-2.187-2.188v17.58c0 1.162.942 2.104 2.104 2.104z"/><path id="ag" d="M988.285 218.835h27.603a2.104 2.104 0 0 0 2.104-2.104v-2.155a2.103 2.103 0 0 0-2.104-2.103h-27.603a2.103 2.103 0 0 0-2.104 2.103v2.155c0 1.162.942 2.104 2.104 2.104z"/><path id="ah" d="M1012.144 169.527h13.288a2.103 2.103 0 0 0 2.104-2.104v-2.154a2.104 2.104 0 0 0-2.104-2.104h-13.288a2.104 2.104 0 0 0-2.104 2.104v2.154c0 1.163.942 2.104 2.104 2.104z"/><path id="ai" d="M989.362 270.21v16.541a2.072 2.072 0 0 1-2.075 2.068h47.687a2.105 2.105 0 0 0 2.105-2.104v-16.469a2.105 2.105 0 0 0-2.105-2.104h-47.687a2.07 2.07 0 0 1 2.075 2.068z"/><path id="aj" d="M989.362 270.209v16.542a2.07 2.07 0 0 1-2.075 2.067h47.687a2.104 2.104 0 0 0 2.105-2.103v-16.469a2.105 2.105 0 0 0-2.105-2.104h-47.687a2.07 2.07 0 0 1 2.075 2.067z"/><path id="ak" d="M985.105 288.82h2.153a2.105 2.105 0 0 0 2.105-2.105v-16.469a2.106 2.106 0 0 0-2.105-2.105h-2.153a2.105 2.105 0 0 0-2.104 2.105v16.47c0 1.161.942 2.103 2.104 2.103z"/><path id="al" d="M985.105 288.818h2.153a2.104 2.104 0 0 0 2.105-2.104v-16.468a2.106 2.106 0 0 0-2.105-2.105h-2.153a2.105 2.105 0 0 0-2.104 2.105v16.468c0 1.163.942 2.104 2.104 2.104z"/><path id="am" d="M1029.126 193.386c0 .669.055 1.333.162 1.989"/><path id="an" d="M1030.14 198.322c4.657 11.17 24.815 19.708 49.519 20.46"/><path id="ao" d="M1081.201 218.817c.665.012 1.333.018 2.004.018"/><path id="ap" d="M1027.535 226.787c0 .362.47.836 1.36 1.382"/><path id="aq" d="M1031.66 229.537c7.876 3.33 26.223 7.887 47.982 8.347"/><path id="ar" d="M1081.205 237.91c.663.007 1.33.011 2 .011"/><path id="as" d="M1043.441 279.275c0-.688.14-1.336.402-1.945"/><path id="at" d="M1045.766 274.88c9.2-7.786 43.098-8.335 54.096-16.87"/><path id="au" d="M1101.043 256.97a8.89 8.89 0 0 0 1.248-1.553"/><path id="av" d="M1173.866 261.78a4.77 4.77 0 1 1-9.542 0 4.77 4.77 0 0 1 9.542 0z"/></defs><g opacity=".8"><use fill="#d1dbef" opacity=".8" transform="translate(-982 -162)" xlink:href="#a"/><use fill="#fff" fill-opacity="0" stroke="#3f3f3f" stroke-miterlimit="50" stroke-width=".25" opacity=".8" transform="translate(-982 -162)" xlink:href="#b"/><use fill="#fff" fill-opacity="0" stroke="#3f3f3f" stroke-miterlimit="50" stroke-width=".25" opacity=".8" transform="translate(-982 -162)" xlink:href="#c"/><use fill="#fff" fill-opacity="0" stroke="#3f3f3f" stroke-miterlimit="50" stroke-width=".25" opacity=".8" transform="translate(-982 -162)" xlink:href="#d"/><use fill="#fff" fill-opacity="0" stroke="#3f3f3f" stroke-miterlimit="50" stroke-width=".25" opacity=".8" transform="translate(-982 -162)" xlink:href="#e"/><use fill="#fff" fill-opacity="0" stroke="#3f3f3f" stroke-miterlimit="50" stroke-width=".25" opacity=".8" transform="translate(-982 -162)" xlink:href="#f"/><use fill="#fff" fill-opacity="0" stroke="#3f3f3f" stroke-miterlimit="50" stroke-width=".25" opacity=".8" transform="translate(-982 -162)" xlink:href="#g"/><use fill="#fff" fill-opacity="0" stroke="#3f3f3f" stroke-miterlimit="50" stroke-width=".25" opacity=".8" transform="translate(-982 -162)" xlink:href="#h"/><use fill="#fff" fill-opacity="0" stroke="#3f3f3f" stroke-miterlimit="50" stroke-width=".25" opacity=".8" transform="translate(-982 -162)" xlink:href="#i"/><use fill="#fff" fill-opacity="0" stroke="#3f3f3f" stroke-miterlimit="50" stroke-width=".25" opacity=".8" transform="translate(-982 -162)" xlink:href="#j"/><use fill="#fff" fill-opacity="0" stroke="#3f3f3f" stroke-miterlimit="50" stroke-width=".25" opacity=".8" transform="translate(-982 -162)" xlink:href="#k"/></g><use fill="#fff" transform="translate(-982 -162)" xlink:href="#l"/><use fill="#fff" fill-opacity="0" stroke="#b6b6b6" stroke-miterlimit="50" stroke-width=".25" transform="translate(-982 -162)" xlink:href="#m"/><use fill="#fff" fill-opacity="0" stroke="#b6b6b6" stroke-dasharray="1.981 .99" stroke-miterlimit="50" stroke-width=".25" transform="translate(-982 -162)" xlink:href="#n"/><use fill="#fff" fill-opacity="0" stroke="#b6b6b6" stroke-miterlimit="50" stroke-width=".25" transform="translate(-982 -162)" xlink:href="#o"/><use fill="#fff" fill-opacity="0" stroke="#b6b6b6" stroke-dasharray="2.012 1.006" stroke-miterlimit="50" stroke-width=".25" transform="translate(-982 -162)" xlink:href="#p"/><use fill="#fff" fill-opacity="0" stroke="#b6b6b6" stroke-dasharray="2.028 1.014" stroke-miterlimit="50" stroke-width=".25" transform="translate(-982 -162)" xlink:href="#q"/><use fill="#fff" fill-opacity="0" stroke="#b6b6b6" stroke-dasharray="2.028 1.014" stroke-miterlimit="50" stroke-width=".25" transform="translate(-982 -162)" xlink:href="#r"/><use fill="#fff" fill-opacity="0" stroke="#b6b6b6" stroke-miterlimit="50" stroke-width=".25" transform="translate(-982 -162)" xlink:href="#s"/><use fill="#fff" fill-opacity="0" stroke="#b6b6b6" stroke-dasharray="2.005 1.002" stroke-miterlimit="50" stroke-width=".25" transform="translate(-982 -162)" xlink:href="#t"/><use fill="#fff" fill-opacity="0" stroke="#b6b6b6" stroke-dasharray="2.028 1.014" stroke-miterlimit="50" stroke-width=".25" transform="translate(-982 -162)" xlink:href="#u"/><use fill="#fff" fill-opacity="0" stroke="#b6b6b6" stroke-dasharray="1.995 .997" stroke-miterlimit="50" stroke-width=".25" transform="translate(-982 -162)" xlink:href="#v"/><use fill="#fff" fill-opacity="0" stroke="#b6b6b6" stroke-miterlimit="50" stroke-width=".25" transform="translate(-982 -162)" xlink:href="#w"/><use fill="#fff" fill-opacity="0" stroke="#b6b6b6" stroke-dasharray="1.985 .992" stroke-miterlimit="50" stroke-width=".25" transform="translate(-982 -162)" xlink:href="#x"/><use fill="#ff6469" transform="translate(-982 -162)" xlink:href="#i"/><use fill="#fff" fill-opacity="0" stroke="#3f3f3f" stroke-miterlimit="50" stroke-width=".25" transform="translate(-982 -162)" xlink:href="#i"/><use fill="#ffe069" transform="translate(-982 -162)" xlink:href="#h"/><use fill="#fff" fill-opacity="0" stroke="#3f3f3f" stroke-miterlimit="50" stroke-width=".25" transform="translate(-982 -162)" xlink:href="#h"/><use fill="#86e0a9" transform="translate(-982 -162)" xlink:href="#g"/><use fill="#fff" fill-opacity="0" stroke="#3f3f3f" stroke-miterlimit="50" stroke-width=".25" transform="translate(-982 -162)" xlink:href="#g"/><use fill="#e3e9f5" transform="translate(-982 -162)" xlink:href="#y"/><use fill="#fff" fill-opacity="0" stroke="#3f3f3f" stroke-miterlimit="50" stroke-width=".25" transform="translate(-982 -162)" xlink:href="#z"/><use fill="#e3e9f5" transform="translate(-982 -162)" xlink:href="#A"/><use fill="#fff" fill-opacity="0" stroke="#3f3f3f" stroke-miterlimit="50" stroke-width=".25" transform="translate(-982 -162)" xlink:href="#B"/><use fill="#e3e9f5" transform="translate(-982 -162)" xlink:href="#C"/><use fill="#fff" fill-opacity="0" stroke="#3f3f3f" stroke-miterlimit="50" stroke-width=".25" transform="translate(-982 -162)" xlink:href="#D"/><use fill="#e3e9f5" transform="translate(-982 -162)" xlink:href="#E"/><use fill="#fff" fill-opacity="0" stroke="#3f3f3f" stroke-miterlimit="50" stroke-width=".25" transform="translate(-982 -162)" xlink:href="#F"/><use fill="#e3e9f5" transform="translate(-982 -162)" xlink:href="#G"/><use fill="#fff" fill-opacity="0" stroke="#3f3f3f" stroke-miterlimit="50" stroke-width=".25" transform="translate(-982 -162)" xlink:href="#H"/><use fill="#f8d689" transform="translate(-982 -162)" xlink:href="#I"/><use fill="#fff" fill-opacity="0" stroke="#3f3f3f" stroke-miterlimit="50" stroke-width=".25" transform="translate(-982 -162)" xlink:href="#J"/><use fill="#fff" fill-opacity="0" stroke="#3f3f3f" stroke-miterlimit="50" stroke-width=".25" transform="translate(-982 -162)" xlink:href="#K"/><use fill="#fff" fill-opacity="0" stroke="#3f3f3f" stroke-miterlimit="50" stroke-width=".25" transform="translate(-982 -162)" xlink:href="#L"/><use fill="#fff" fill-opacity="0" stroke="#3f3f3f" stroke-miterlimit="50" stroke-width=".25" transform="translate(-982 -162)" xlink:href="#M"/><use fill="#fff" fill-opacity="0" stroke="#3f3f3f" stroke-miterlimit="50" stroke-width=".25" transform="translate(-982 -162)" xlink:href="#N"/><use fill="#fff" fill-opacity="0" stroke="#3f3f3f" stroke-miterlimit="50" stroke-width=".25" transform="translate(-982 -162)" xlink:href="#O"/><use fill="#fff" fill-opacity="0" stroke="#3f3f3f" stroke-miterlimit="50" stroke-width=".25" transform="translate(-982 -162)" xlink:href="#P"/><use fill="#f68779" transform="translate(-982 -162)" xlink:href="#Q"/><use fill="#fff" fill-opacity="0" stroke="#3f3f3f" stroke-miterlimit="50" stroke-width=".25" transform="translate(-982 -162)" xlink:href="#R"/><use fill="#fff" transform="translate(-982 -162)" xlink:href="#S"/><use fill="#fff" fill-opacity="0" stroke="#3f3f3f" stroke-miterlimit="50" stroke-width=".25" transform="translate(-982 -162)" xlink:href="#T"/><use fill="#fff" transform="translate(-982 -162)" xlink:href="#U"/><use fill="#fff" fill-opacity="0" stroke="#3f3f3f" stroke-miterlimit="50" stroke-width=".25" transform="translate(-982 -162)" xlink:href="#V"/><use fill="#fff" transform="translate(-982 -162)" xlink:href="#W"/><use fill="#fff" fill-opacity="0" stroke="#3f3f3f" stroke-miterlimit="50" stroke-width=".25" transform="translate(-982 -162)" xlink:href="#X"/><use fill="#fff" transform="translate(-982 -162)" xlink:href="#Y"/><use fill="#fff" fill-opacity="0" stroke="#3f3f3f" stroke-miterlimit="50" stroke-width=".25" transform="translate(-982 -162)" xlink:href="#Z"/><use fill="#fff" transform="translate(-982 -162)" xlink:href="#aa"/><use fill="#fff" fill-opacity="0" stroke="#3f3f3f" stroke-miterlimit="50" stroke-width=".25" transform="translate(-982 -162)" xlink:href="#ab"/><use fill="#dde2ec" transform="translate(-982 -162)" xlink:href="#ac"/><use fill="#fff" fill-opacity="0" stroke="#3f3f3f" stroke-miterlimit="50" stroke-width=".25" transform="translate(-982 -162)" xlink:href="#ad"/><use fill="#dde2ec" transform="translate(-982 -162)" xlink:href="#ae"/><use fill="#fff" fill-opacity="0" stroke="#3f3f3f" stroke-miterlimit="50" stroke-width=".25" transform="translate(-982 -162)" xlink:href="#af"/><use fill="#ffdb69" transform="translate(-982 -162)" xlink:href="#ag"/><use fill="#fff" fill-opacity="0" stroke="#3f3f3f" stroke-miterlimit="50" stroke-width=".25" transform="translate(-982 -162)" xlink:href="#ag"/><use fill="#b3e073" transform="translate(-982 -162)" xlink:href="#ah"/><use fill="#fff" fill-opacity="0" stroke="#3f3f3f" stroke-miterlimit="50" stroke-width=".25" transform="translate(-982 -162)" xlink:href="#ah"/><g opacity=".39"><use fill="#dde2ec" opacity=".39" transform="translate(-982 -162)" xlink:href="#ai"/><use fill="#fff" fill-opacity="0" stroke="#3f3f3f" stroke-miterlimit="50" stroke-width=".25" opacity=".39" transform="translate(-982 -162)" xlink:href="#aj"/></g><use fill="#c2b3f9" transform="translate(-982 -162)" xlink:href="#ak"/><use fill="#fff" fill-opacity="0" stroke="#3f3f3f" stroke-miterlimit="50" stroke-width=".25" transform="translate(-982 -162)" xlink:href="#al"/><use fill="#fff" fill-opacity="0" stroke="#3f3f3f" stroke-linecap="round" stroke-miterlimit="50" stroke-width=".25" transform="translate(-982 -162)" xlink:href="#am"/><use fill="#fff" fill-opacity="0" stroke="#3f3f3f" stroke-dasharray="4.102 3.076" stroke-linecap="round" stroke-miterlimit="50" stroke-width=".25" transform="translate(-982 -162)" xlink:href="#an"/><use fill="#fff" fill-opacity="0" stroke="#3f3f3f" stroke-linecap="round" stroke-miterlimit="50" stroke-width=".25" transform="translate(-982 -162)" xlink:href="#ao"/><use fill="#fff" fill-opacity="0" stroke="#3f3f3f" stroke-linecap="round" stroke-miterlimit="50" stroke-width=".25" transform="translate(-982 -162)" xlink:href="#ap"/><use fill="#fff" fill-opacity="0" stroke="#3f3f3f" stroke-dasharray="4.121 3.09" stroke-linecap="round" stroke-miterlimit="50" stroke-width=".25" transform="translate(-982 -162)" xlink:href="#aq"/><use fill="#fff" fill-opacity="0" stroke="#3f3f3f" stroke-linecap="round" stroke-miterlimit="50" stroke-width=".25" transform="translate(-982 -162)" xlink:href="#ar"/><use fill="#fff" fill-opacity="0" stroke="#3f3f3f" stroke-linecap="round" stroke-miterlimit="50" stroke-width=".25" transform="translate(-982 -162)" xlink:href="#as"/><use fill="#fff" fill-opacity="0" stroke="#3f3f3f" stroke-dasharray="4.189 3.142" stroke-linecap="round" stroke-miterlimit="50" stroke-width=".25" transform="translate(-982 -162)" xlink:href="#at"/><use fill="#fff" fill-opacity="0" stroke="#3f3f3f" stroke-linecap="round" stroke-miterlimit="50" stroke-width=".25" transform="translate(-982 -162)" xlink:href="#au"/><use fill="#7fd3ea" transform="translate(-982 -162)" xlink:href="#av"/><use fill="#fff" fill-opacity="0" stroke="#3f3f3f" stroke-miterlimit="50" stroke-width=".25" transform="translate(-982 -162)" xlink:href="#av"/></svg>