<svg xmlns="http://www.w3.org/2000/svg" viewBox="0 0 28.53 29.29"><title>bug</title><g id="Layer_2" data-name="Layer 2"><g id="мобил"><g id="HELP"><path d="M4.77,1.45A7,7,0,0,1,10.1,7.11a7,7,0,0,0-1.87,4.82V12H20.3a.43.43,0,0,0,0-.05,7,7,0,0,0-1.87-4.82,7,7,0,0,1,5.33-5.66A.73.73,0,0,0,23.5,0a8.63,8.63,0,0,0-6.33,6.08,5.5,5.5,0,0,0-2.9-.83,5.56,5.56,0,0,0-2.91.83A8.63,8.63,0,0,0,5,0a.73.73,0,0,0-.26,1.44Z" style="fill:#fff"/><path d="M28.49,8.55A1,1,0,0,0,26.63,8s-1.2,3.85-1.45,4.68l-3.2.89c0-.18-.07-.35-.11-.52H6.66c0,.17-.07.34-.11.52l-3.19-.89L1.91,8A1,1,0,0,0,.69,7.33,1,1,0,0,0,0,8.55l1.77,5.69,4.46,1.24c0,.42-.06.83-.06,1.26s0,1,.08,1.54l-4.46,2L.44,28.14a1,1,0,0,0,.79,1.14,1,1,0,0,0,1.13-.8s1.06-6,1.22-6.85l3-1.36C7.68,24.77,10.7,28,14.27,28s6.59-3.26,7.65-7.76l3,1.36c.15.88,1.21,6.85,1.21,6.85a1,1,0,1,0,1.92-.34L26.7,20.27l-4.45-2c.05-.5.08-1,.08-1.54s0-.84-.06-1.26l4.46-1.24Z" style="fill:#fff"/></g></g></g></svg>