<svg xmlns="http://www.w3.org/2000/svg" xmlns:xlink="http://www.w3.org/1999/xlink" width="32" height="21" viewBox="0 0 32 21"><defs><path id="nhc3a" d="M275.588 22.852h28.824a1.175 1.175 0 1 0 0-2.352h-28.824a1.177 1.177 0 0 0 0 2.352z"/><path id="nhc3b" d="M275.125 31.677h17.48c.394 0 .714-.527.714-1.177s-.32-1.177-.714-1.177h-17.48c-.394 0-.713.528-.713 1.177 0 .65.319 1.177.713 1.177z"/><path id="nhc3c" d="M275.318 40.5h22.218c.5 0 .906-.527.906-1.177 0-.649-.406-1.176-.906-1.176h-22.218c-.5 0-.906.527-.906 1.176 0 .65.406 1.177.906 1.177z"/></defs><g><g transform="translate(-274 -20)"><use fill="#383838" xlink:href="#nhc3a"/></g><g transform="translate(-274 -20)"><use fill="#383838" xlink:href="#nhc3b"/></g><g transform="translate(-274 -20)"><use fill="#383838" xlink:href="#nhc3c"/></g></g></svg>