<svg xmlns="http://www.w3.org/2000/svg" viewBox="0 0 12 12"><title>Asset 1</title><g id="Layer_2" data-name="Layer 2"><g id="Главная"><path d="M6,0a6,6,0,1,0,6,6A6,6,0,0,0,6,0Zm.26,11.47V10.42a.26.26,0,1,0-.52,0v1.05A5.47,5.47,0,0,1,.53,6.26H1.58a.26.26,0,1,0,0-.52h-1A5.47,5.47,0,0,1,5.74.53V1.58a.26.26,0,0,0,.52,0v-1a5.47,5.47,0,0,1,5.21,5.21H10.42a.26.26,0,1,0,0,.52h1.05A5.47,5.47,0,0,1,6.26,11.47Z" style="fill:#e8f9f0"/><path d="M8.72,8.39,6.26,5.89V3.3a.26.26,0,0,0-.52,0V6a.25.25,0,0,0,.08.18L8.35,8.75a.25.25,0,0,0,.36,0A.27.27,0,0,0,8.72,8.39Z" style="fill:#e8f9f0"/></g></g></svg>