<svg xmlns="http://www.w3.org/2000/svg" xmlns:xlink="http://www.w3.org/1999/xlink" width="18" height="9" viewBox="0 0 18 9"><defs><path id="h3jja" d="M31.22 652h-6.44c-.43 0-.78-.044-.78-.098v-.804c0-.054.35-.098.78-.098h6.44c.431 0 .78.044.78.098v.804c0 .054-.349.098-.78.098z"/><path id="h3jjb" d="M41.22 652h-6.44c-.43 0-.78-.044-.78-.098v-.804c0-.054.35-.098.78-.098h6.44c.431 0 .78.044.78.098v.804c0 .054-.349.098-.78.098z"/><path id="h3jjc" d="M31.22 648h-6.44c-.43 0-.78-.044-.78-.098v-.804c0-.054.35-.098.78-.098h6.44c.431 0 .78.044.78.098v.804c0 .054-.349.098-.78.098z"/><path id="h3jjd" d="M41.22 648h-6.44c-.43 0-.78-.044-.78-.098v-.804c0-.054.35-.098.78-.098h6.44c.431 0 .78.044.78.098v.804c0 .054-.349.098-.78.098z"/><path id="h3jje" d="M31.22 656h-6.44c-.43 0-.78-.044-.78-.098v-.804c0-.054.35-.098.78-.098h6.44c.431 0 .78.044.78.098v.804c0 .054-.349.098-.78.098z"/><path id="h3jjf" d="M41.22 656h-6.44c-.43 0-.78-.044-.78-.098v-.804c0-.054.35-.098.78-.098h6.44c.431 0 .78.044.78.098v.804c0 .054-.349.098-.78.098z"/></defs><g><g transform="translate(-24 -647)"><use fill="#fff" xlink:href="#h3jja"/></g><g transform="translate(-24 -647)"><use fill="#fff" xlink:href="#h3jjb"/></g><g transform="translate(-24 -647)"><use fill="#fff" xlink:href="#h3jjc"/></g><g transform="translate(-24 -647)"><use fill="#fff" xlink:href="#h3jjd"/></g><g transform="translate(-24 -647)"><use fill="#fff" xlink:href="#h3jje"/></g><g transform="translate(-24 -647)"><use fill="#fff" xlink:href="#h3jjf"/></g></g></svg>