<svg xmlns="http://www.w3.org/2000/svg" viewBox="0 0 27.69 30"><g fill="#606363" data-name="Layer 2"><path d="M24.4 7.58h-5.28a.66.66 0 1 0 0 1.32h5.28a2 2 0 0 1 2 2v15.8a2 2 0 0 1-2 2H3.3a2 2 0 0 1-2-2V10.88a2 2 0 0 1 2-2h5.93a.66.66 0 0 0 0-1.32H3.3A3.31 3.31 0 0 0 0 10.88V26.7A3.3 3.3 0 0 0 3.3 30h21.1a3.3 3.3 0 0 0 3.29-3.3V10.88a3.31 3.31 0 0 0-3.29-3.3z"/><path d="M7.55 13.48a.65.65 0 0 0 0 .93l5.83 5.83a.69.69 0 0 0 .47.2.66.66 0 0 0 .46-.2l5.83-5.83a.65.65 0 0 0-.92-.93l-4.71 4.72V.66a.66.66 0 0 0-1.32 0V18.2l-4.72-4.72a.64.64 0 0 0-.92 0z"/></g></svg>