<svg xmlns="http://www.w3.org/2000/svg" viewBox="0 0 28.53 28.58"><title>phone</title><g id="Layer_2" data-name="Layer 2"><g id="мобил"><path d="M22.56,17.7a2.79,2.79,0,0,0-2-.93,2.9,2.9,0,0,0-2.06.93l-1.9,1.89-.47-.24a5.57,5.57,0,0,1-.6-.32,20.82,20.82,0,0,1-5-4.52A12.26,12.26,0,0,1,8.9,11.94c.5-.45,1-.92,1.4-1.37l.51-.52a2.77,2.77,0,0,0,0-4.17L9.16,4.23c-.19-.18-.38-.38-.56-.57-.36-.37-.74-.76-1.13-1.12a2.87,2.87,0,0,0-2-.89,2.94,2.94,0,0,0-2.05.89h0l-2,2.07A4.43,4.43,0,0,0,0,7.42,10.59,10.59,0,0,0,.8,11.9a25.58,25.58,0,0,0,4.61,7.69A28.23,28.23,0,0,0,14.86,27a14.64,14.64,0,0,0,5.31,1.57l.38,0A4.58,4.58,0,0,0,24,27.08l0,0c.32-.38.68-.72,1.06-1.09s.52-.51.78-.78a3,3,0,0,0,.91-2.09A2.92,2.92,0,0,0,25.87,21Zm2.16,6.35h0c-.23.26-.47.48-.73.74A14.83,14.83,0,0,0,22.82,26a2.87,2.87,0,0,1-2.27,1h-.27a13.38,13.38,0,0,1-4.71-1.41,26.85,26.85,0,0,1-8.9-7,24.41,24.41,0,0,1-4.34-7.23,8.63,8.63,0,0,1-.68-3.77,2.72,2.72,0,0,1,.84-1.79L4.54,3.71a1.37,1.37,0,0,1,.92-.43,1.29,1.29,0,0,1,.88.42l0,0c.37.35.72.7,1.08,1.08L8,5.39,9.66,7a1.15,1.15,0,0,1,0,1.87l-.52.52c-.5.52-1,1-1.51,1.47l0,0a1.23,1.23,0,0,0-.31,1.37v.06a13.54,13.54,0,0,0,2,3.17h0a22,22,0,0,0,5.35,4.87,6.94,6.94,0,0,0,.75.41c.21.11.42.21.59.32l.07,0a1.36,1.36,0,0,0,.6.15,1.27,1.27,0,0,0,.92-.42l2.06-2.06a1.39,1.39,0,0,1,.91-.45,1.21,1.21,0,0,1,.87.44h0l3.33,3.32A1.19,1.19,0,0,1,24.72,24.05Z" style="fill:#fff"/><path d="M15.42,6.8a7.77,7.77,0,0,1,6.32,6.32.8.8,0,0,0,.8.67h.14a.81.81,0,0,0,.67-.94,9.38,9.38,0,0,0-7.64-7.65.83.83,0,0,0-1,.67A.82.82,0,0,0,15.42,6.8Z" style="fill:#fff"/><path d="M28.52,12.61A15.45,15.45,0,0,0,15.93,0,.82.82,0,0,0,15,.68a.83.83,0,0,0,.67.94A13.79,13.79,0,0,1,26.92,12.87a.81.81,0,0,0,.8.68l.14,0A.78.78,0,0,0,28.52,12.61Z" style="fill:#fff"/></g></g></svg>