<svg xmlns="http://www.w3.org/2000/svg" xmlns:xlink="http://www.w3.org/1999/xlink" width="24" height="23" viewBox="0 0 24 23"><defs><path id="kgk8a" d="M45.539 857.984h-5.54a.468.468 0 0 0-.427.3l-1.3 3.252-1.053-4.563a.46.46 0 1 0-.9.007l-2.587 11.826-1.58-17.767a.461.461 0 0 0-.384-.415.453.453 0 0 0-.497.258l-3.57 8.025h-5.24a.462.462 0 0 0 0 .924H28a.453.453 0 0 0 .422-.266l2.969-6.675 1.688 18.997c.02.227.203.407.43.421l.03.001a.462.462 0 0 0 .45-.362l2.793-12.764.923 4a.462.462 0 0 0 .414.357.47.47 0 0 0 .464-.298l1.73-4.335h5.226a.46.46 0 1 0 0-.923z"/></defs><g><g transform="translate(-22 -850)"><use fill="#fff" xlink:href="#kgk8a"/></g></g></svg>