<svg xmlns="http://www.w3.org/2000/svg" xmlns:xlink="http://www.w3.org/1999/xlink" width="20" height="33" viewBox="0 0 20 33"><defs><path id="41mda" d="M69.135 463.58h-5.202a.33.33 0 0 1-.188-.063l-.91-.647a1.413 1.413 0 0 0-.823-.264h-2.006a1.494 1.494 0 0 0-1.461 1.522v6.815a1.494 1.494 0 0 0 1.46 1.522h9.13a1.493 1.493 0 0 0 1.46-1.522V465.1a1.492 1.492 0 0 0-1.46-1.521zm.364 7.363a.4.4 0 0 1-.364.426h-9.13a.398.398 0 0 1-.364-.427v-6.816a.398.398 0 0 1 .365-.425h2.006a.329.329 0 0 1 .189.062l.908.646c.24.173.529.266.825.266h5.2a.4.4 0 0 1 .366.426z"/><path id="41mdb" d="M69.135 474.534h-5.202a.321.321 0 0 1-.188-.062l-.91-.647a1.415 1.415 0 0 0-.821-.265h-2.008a1.495 1.495 0 0 0-1.461 1.522v6.816a1.494 1.494 0 0 0 1.46 1.52h9.13a1.492 1.492 0 0 0 1.46-1.52v-5.842a1.493 1.493 0 0 0-1.46-1.522zm.364 7.364a.4.4 0 0 1-.364.426h-9.13a.398.398 0 0 1-.364-.426v-6.816a.398.398 0 0 1 .365-.426h2.006c.068 0 .134.022.189.06l.908.648c.24.173.529.265.825.266h5.2a.4.4 0 0 1 .366.426z"/><path id="41mdc" d="M69.135 485.488h-5.202a.321.321 0 0 1-.188-.062l-.91-.647a1.415 1.415 0 0 0-.821-.265h-2.008a1.495 1.495 0 0 0-1.461 1.522v6.816a1.494 1.494 0 0 0 1.46 1.521h9.13a1.492 1.492 0 0 0 1.46-1.52v-5.843a1.493 1.493 0 0 0-1.46-1.522zm.364 7.364a.4.4 0 0 1-.364.426h-9.13a.398.398 0 0 1-.364-.426v-6.816a.398.398 0 0 1 .365-.426h2.006c.068 0 .134.022.189.062l.908.646c.24.173.529.265.825.266h5.2a.4.4 0 0 1 .366.426z"/><path id="41mdd" d="M55.258 468.083h1.644a.548.548 0 0 0 0-1.096h-1.644a1.608 1.608 0 0 0-1.643 1.567v9.388h-2.19a.548.548 0 1 0 0 1.096h2.19v9.388a1.607 1.607 0 0 0 1.643 1.566h1.644a.547.547 0 0 0 0-1.096h-1.644a.512.512 0 0 1-.547-.471v-9.387h2.191a.548.548 0 0 0 0-1.096h-2.19v-9.388a.512.512 0 0 1 .546-.471z"/></defs><g><g transform="translate(-51 -462)"><use fill="#686868" xlink:href="#41mda"/></g><g transform="translate(-51 -462)"><use fill="#686868" xlink:href="#41mdb"/></g><g transform="translate(-51 -462)"><use fill="#686868" xlink:href="#41mdc"/></g><g transform="translate(-51 -462)"><use fill="#686868" xlink:href="#41mdd"/></g></g></svg>